<?xml version="1.0" encoding="utf-8"?>
<!-- Generator: Adobe Illustrator 24.3.0, SVG Export Plug-In . SVG Version: 6.00 Build 0)  -->
<svg version="1.1" id="Capa_1" xmlns="http://www.w3.org/2000/svg" xmlns:xlink="http://www.w3.org/1999/xlink" x="0px" y="0px"
	 viewBox="0 0 1818.3 600" style="enable-background:new 0 0 1818.3 600;" xml:space="preserve">
<style type="text/css">
	.st0{fill:url(#SVGID_1_);}
	.st1{fill:#56AF31;}
	.st2{fill:#FFFFFF;}
	.st3{fill:url(#SVGID_2_);}
	.st4{fill:#22499A;stroke:#224A99;stroke-width:4;stroke-miterlimit:10;}
	.st5{fill:#22499A;}
</style>
<g>
	<linearGradient id="SVGID_1_" gradientUnits="userSpaceOnUse" x1="189.0061" y1="470.6364" x2="425.1826" y2="311.3333">
		<stop  offset="5.649718e-03" style="stop-color:#1B4E9B"/>
		<stop  offset="0.1778" style="stop-color:#1C58A1"/>
		<stop  offset="0.5187" style="stop-color:#2273B0"/>
		<stop  offset="0.9925" style="stop-color:#3E9FC4"/>
		<stop  offset="1" style="stop-color:#3FA0C4"/>
	</linearGradient>
	<ellipse class="st0" cx="305.4" cy="392.1" rx="137" ry="147.5"/>
	<path class="st1" d="M238.2,244.6c0,0-130.1-21.7-111.5-184.3C126.7,60.4,253.6,88.3,238.2,244.6z"/>
	<path class="st2" d="M372.1,381.8L347,368c-4.1-2.2-6.8-6.3-7.2-10.9l-2.9-28.4c-1.2-11.6-15.2-16.9-23.7-8.9l-20.8,19.6
		c-3.4,3.2-8.1,4.5-12.6,3.5l-27.9-6.1c-11.4-2.5-20.7,9.2-15.7,19.8l12.2,25.8c2,4.2,1.8,9.1-0.6,13.1l-14.4,24.7
		c-5.9,10.1,2.4,22.6,13.9,21.1l28.3-3.6c4.6-0.6,9.2,1.1,12.3,4.6l19,21.3c7.8,8.7,22.2,4.7,24.4-6.8l5.3-28.1
		c0.9-4.6,3.9-8.4,8.2-10.3L371,407C381.7,402.3,382.3,387.4,372.1,381.8z M305.4,432.6c-19.7,0-35.6-18.1-35.6-40.5
		c0-22.4,15.9-40.5,35.6-40.5s35.6,18.1,35.6,40.5C341,414.5,325.1,432.6,305.4,432.6z"/>
	<linearGradient id="SVGID_2_" gradientUnits="userSpaceOnUse" x1="42.8271" y1="267.9222" x2="271.3041" y2="488.5599">
		<stop  offset="0" style="stop-color:#3FA0C4"/>
		<stop  offset="4.994427e-02" style="stop-color:#3897C1"/>
		<stop  offset="0.2312" style="stop-color:#2679B3"/>
		<stop  offset="0.4032" style="stop-color:#2061A7"/>
		<stop  offset="0.5613" style="stop-color:#20519D"/>
		<stop  offset="0.7006" style="stop-color:#1F4697"/>
		<stop  offset="0.8063" style="stop-color:#1F4395"/>
	</linearGradient>
	<path class="st3" d="M152.7,391.3c0-59.7,30.2-111.7,75.1-139.5c-14.4-4.7-29.7-7.2-45.6-7.2c-20.3,0-39.6,4.1-57.2,11.5
		l-31.6-18.1v34.5l-44.9-10.5l10.3,49.3c-1,1.5-2,3.1-2.9,4.6c-9.7,0.1-34.7,0.2-35.6,0c-0.8-0.2,12.9,20.5,21,32.5
		c-4.3,13.8-6.6,28.5-6.6,43.7c0,81.5,66,147.5,147.5,147.5c16.6,0,32.5-2.7,47.3-7.8C183.7,504.4,152.7,451.8,152.7,391.3z"/>
	<path class="st1" d="M236.6,128c0,0,24.5,54.2,19.4,99.6c0,0,67.6,8.3,74.1-138.3C330,89.3,280.7,91.1,236.6,128z"/>
	<g>
		<g>
			<path class="st4" d="M598,503.6h-85.4c-3,0-5.5-2.5-5.5-5.5V298.3c0-3,2.5-5.5,5.5-5.5h81.5c44.1,0,68.6,23,68.6,54.4
				c0,25.7-15.4,41.7-35.9,48.3c23.9,4.2,40.8,26.3,40.8,51C667.5,480.1,641.8,503.6,598,503.6z M588.1,327h-38.7v52.9h38.7
				c19.9,0,31.4-9.1,31.4-26.3C619.5,336.6,608,327,588.1,327z M591.1,412.4h-41.7v56.8H592c20.5,0,32.6-10,32.6-27.8
				C624.6,423.3,611.6,412.4,591.1,412.4z"/>
			<path class="st4" d="M766.5,506.4c-48.3,0-84.9-33.8-84.9-86.4c0-52.9,37.8-86.4,86.1-86.4s86.1,33.5,86.1,86.4
				C853.8,472.5,815.2,506.4,766.5,506.4z M766.5,469.5c22.3,0,43.8-16.3,43.8-49.5c0-33.5-20.8-49.5-43.2-49.5
				c-22.3,0-42.6,16-42.6,49.5C724.6,453.2,743.9,469.5,766.5,469.5z"/>
		</g>
	</g>
	<g>
		<g>
			<path class="st5" d="M1204,335.7c26.9,0,45.3,12.7,55.3,26.6v-17.5c0-3.5,2.8-6.3,6.3-6.3h29.9c3.5,0,6.3,2.8,6.3,6.3v154.7
				c0,3.5-2.8,6.3-6.3,6.3h-29.9c-3.5,0-6.3-2.8-6.3-6.3v-18.1c-10,14.5-29,27.2-55.6,27.2c-42.3,0-76.1-34.7-76.1-87
				C1127.6,369.2,1161.5,335.7,1204,335.7z M1214.9,372.9c-22.7,0-44.1,16.9-44.1,48.6c0,31.7,21.4,49.8,44.1,49.8
				c23.3,0,44.4-17.5,44.4-49.2S1238.2,372.9,1214.9,372.9z"/>
			<path class="st5" d="M1373,505.7h-35.2c-1.9,0-3.5-1.6-3.5-3.5V342c0-1.9,1.6-3.5,3.5-3.5h35.2c1.9,0,3.5,1.6,3.5,3.5v22.5
				c10-16.3,26.2-27.2,47.7-28.3c2-0.1,3.7,1.5,3.7,3.5v37.3c0,1.9-1.6,3.5-3.5,3.5h-7.7c-25.1,0-40.2,9.7-40.2,42v79.8
				C1376.5,504.2,1374.9,505.7,1373,505.7z"/>
			<path class="st5" d="M1683.9,335.7c26.9,0,45.3,12.7,55.3,26.6v-19.1c0-2.6,2.1-4.8,4.8-4.8h33c2.6,0,4.8,2.1,4.8,4.8V501
				c0,2.6-2.1,4.8-4.8,4.8h-33c-2.6,0-4.8-2.1-4.8-4.8v-19.7c-10,14.5-29,27.2-55.6,27.2c-42.3,0-76.1-34.7-76.1-87
				C1607.5,369.2,1641.4,335.7,1683.9,335.7z M1694.8,372.9c-22.7,0-44.1,16.9-44.1,48.6c0,31.7,21.4,49.8,44.1,49.8
				c23.3,0,44.4-17.5,44.4-49.2S1718.1,372.9,1694.8,372.9z"/>
		</g>
	</g>
	<path class="st5" d="M1112.1,386.3v116.4c0,2.9-2.3,5.2-5.2,5.2h-39.2c-2.9,0-5.2-2.3-5.2-5.2V402.2c0,0-2-15.9-20.8-15.9
		c-18.8,0-22.6,15.9-22.6,15.9h-0.1v100.5c0,2.9-2.3,5.2-5.2,5.2h-41.3c-2.9,0-5.2-2.3-5.2-5.2V402.2c0,0-4-16.5-21.8-15.9
		s-23.8,15.9-23.8,15.9v100.5c0,2.9-2.3,5.2-5.2,5.2h-39.2c-2.9,0-5.2-2.3-5.2-5.2V339.4c0-2.9,2.3-5.2,5.2-5.2h39.2
		c2.9,0,5.2,2.3,5.2,5.2v10.5c0,0,38.1-45.3,89.4,0C1011.2,349.9,1084.9,286.5,1112.1,386.3z"/>
	<path class="st5" d="M1551.3,455.7c-2.4-1.3-5.4-0.6-6.8,1.7c-5.8,9.2-15.4,16.1-31.2,16.1c-21.1,0-38.1-13.9-40.2-38.7h115.2
		c4.2,0,7.6-3.2,8-7.4c0.2-3,0.3-5.9,0.3-8.9c0-49.8-34.1-82.7-82.4-82.7c-49.5,0-84,33.5-84,86.4c0,52.5,35.3,86.4,84,86.4
		c29.3,0,51.8-12.3,65.7-30.4c1.9-2.5,1.1-6.2-1.6-7.7L1551.3,455.7z M1513,370.4c21.7,0,39.3,13.9,39.9,35.9h-79.4
		C1476.8,383.4,1492.8,370.4,1513,370.4z"/>
</g>
</svg>
