<?xml version="1.0" encoding="utf-8"?>
<!-- Generator: Adobe Illustrator 25.4.1, SVG Export Plug-In . SVG Version: 6.00 Build 0)  -->
<svg version="1.1" id="Capa_1" xmlns="http://www.w3.org/2000/svg" xmlns:xlink="http://www.w3.org/1999/xlink" x="0px" y="0px"
	 viewBox="0 0 300 300" style="enable-background:new 0 0 300 300;" xml:space="preserve">
<style type="text/css">
	.st0{clip-path:url(#SVGID_00000109000251880176710760000010111325748780087227_);}
	
		.st1{clip-path:url(#SVGID_00000078038374696269807620000017472209656619480197_);fill-rule:evenodd;clip-rule:evenodd;fill:#00C000;}
	.st2{fill-rule:evenodd;clip-rule:evenodd;fill:#00C000;}
	.st3{fill-rule:evenodd;clip-rule:evenodd;fill:#293194;}
	.st4{fill-rule:evenodd;clip-rule:evenodd;fill:#3249BF;}
	.st5{fill-rule:evenodd;clip-rule:evenodd;fill:#0E1378;}
	.st6{fill-rule:evenodd;clip-rule:evenodd;fill:#BEDDFF;}
	.st7{fill-rule:evenodd;clip-rule:evenodd;fill:#753478;}
	.st8{fill-rule:evenodd;clip-rule:evenodd;fill:#FF9E00;}
	.st9{fill-rule:evenodd;clip-rule:evenodd;fill:#007122;}
	.st10{display:none;}
	.st11{display:inline;fill-rule:evenodd;clip-rule:evenodd;fill:#80C100;}
	.st12{display:inline;fill:#80C100;}
</style>
<image style="display:none;overflow:visible;" width="300" height="300" xlink:href="aviagen.png" >
</image>
<g>
	<g>
		<defs>
			<polyline id="SVGID_1_" points="11.6,175.2 11.6,98.1 105.2,98.1 105.2,175.2 11.6,175.2 			"/>
		</defs>
		<defs>
			<path id="SVGID_00000089567262807614989570000009267273419749365678_" d="M40.1,147.3c0.6,0.9,1.3,1.8,2,2.7
				c1.4,1.8,3,3.6,5.6,4.9c2.7,1.3,6.4,2.1,9.8,2c3.4-0.1,6.4-1.1,9.1-2.7c1.5-0.9,2.9-2.1,4.3-3.3c-1.4-1.6-3.2-3.3-4.9-4.7
				c-2.4-1.9-4.9-3-8.2-3.4c-0.4,0-0.8-0.1-1.2-0.1c-3.1-0.2-6.7,0.1-9.7,0.9c-2,0.5-3.8,1.3-5.5,2.2c0.9-1.6,1.8-3.2,2.4-5.2
				c1-2.9,1.4-6.5,1.3-9.6c0-0.4,0-0.8-0.1-1.2c-0.3-3.3-1.4-5.9-3.2-8.5c-1.4-1.9-3.2-3.8-4.7-5.3c-1.3,1.2-2.6,2.5-3.6,3.9
				c-1.9,2.5-3,5.4-3.2,8.8c-0.2,3.4,0.5,7.2,1.7,9.9c1.3,2.8,3.1,4.5,4.9,6C37.9,145.6,39,146.5,40.1,147.3L40.1,147.3z
				 M25.4,163.3c-0.4,0.2-0.8,0.4-1.2,0.6c-0.1,0.1-0.1,0.1-0.2,0.2c0.8,1.2,1.7,2.4,2.6,3.6c1.5,1.9,3.2,3.9,6.1,5.3
				c2.9,1.4,6.9,2.3,10.6,2.2c3.7-0.1,6.9-1.1,9.8-3c1.6-1,3.1-2.2,4.6-3.6c-1.6-1.7-3.4-3.6-5.3-5.1c-2.6-2-5.3-3.2-8.9-3.7
				c-0.4-0.1-0.8-0.1-1.3-0.1c-3.3-0.2-7.2,0.1-10.5,1C29.4,161.3,27.4,162.2,25.4,163.3L25.4,163.3z M63.9,128.1
				c-0.2,0.4-0.4,0.7-0.6,1.1c-0.1,0.1-0.1,0.1-0.2,0.2c-1.2-0.8-2.3-1.6-3.5-2.5c-1.9-1.5-3.8-3.1-5.2-5.7
				c-1.4-2.7-2.3-6.5-2.3-9.8c0-3.4,1-6.3,2.7-8.9c1-1.5,2.1-2.8,3.4-4.1c1.7,1.5,3.5,3.3,5,5.1c2,2.5,3.2,5,3.7,8.3
				c0.1,0.4,0.1,0.8,0.1,1.2c0.3,3.1,0,6.6-0.8,9.6C65.7,124.4,64.8,126.3,63.9,128.1L63.9,128.1z M23.7,159.8
				c-0.2,0.4-0.5,0.7-0.7,1.1c-0.1,0.1-0.1,0.1-0.2,0.2c-1.2-0.9-2.5-1.9-3.7-2.9c-2-1.7-4-3.5-5.4-6.4c-1.4-3-2.2-7-1.9-10.6
				c0.2-3.6,1.5-6.7,3.6-9.4c1.1-1.5,2.5-2.9,4-4.2c1.7,1.7,3.7,3.7,5.3,5.7c2.1,2.7,3.3,5.5,3.6,9.1c0,0.4,0.1,0.8,0.1,1.3
				c0.1,3.3-0.4,7.1-1.5,10.2C25.9,156,24.9,158,23.7,159.8L23.7,159.8z M77,120.8c-0.3,0.3-0.5,0.6-0.8,1c0,0.1-0.1,0.1-0.1,0.2
				c1.1,0.7,2.2,1.5,3.3,2.2c1.9,1.2,3.9,2.3,6.7,2.5c2.8,0.2,6.4-0.4,9.4-1.7c3-1.3,5.3-3.3,7.1-5.9c1-1.4,1.8-3,2.6-4.6
				c-1.8-0.9-4-1.9-6-2.6c-2.8-0.9-5.4-1-8.5-0.2c-0.4,0.1-0.7,0.2-1.1,0.3c-2.8,0.9-5.9,2.5-8.2,4.4
				C79.6,117.8,78.2,119.2,77,120.8L77,120.8z M65.5,131.9c-0.4,0.2-0.7,0.4-1.1,0.6c-0.1,0.1-0.1,0.1-0.2,0.2
				c0.8,1.1,1.6,2.2,2.4,3.3c1.4,1.8,3,3.6,5.6,4.9c2.7,1.3,6.4,2.1,9.8,2c3.4-0.1,6.4-1.1,9.1-2.7c1.5-0.9,2.9-2.1,4.3-3.3
				c-1.4-1.6-3.2-3.3-4.9-4.7c-2.4-1.9-4.9-3-8.2-3.4c-0.4,0-0.8-0.1-1.2-0.1c-3.1-0.2-6.7,0.1-9.7,0.9
				C69.2,130.1,67.3,131,65.5,131.9L65.5,131.9z"/>
		</defs>
		
			<use xlink:href="#SVGID_00000089567262807614989570000009267273419749365678_"  style="overflow:visible;fill-rule:evenodd;clip-rule:evenodd;fill:#00AE00;"/>
		<clipPath id="SVGID_00000108294566818903835230000004200652006537892236_">
			<use xlink:href="#SVGID_1_"  style="display:none;overflow:visible;"/>
		</clipPath>
		
			<clipPath id="SVGID_00000047028790736494331910000013674151388814942626_" style="clip-path:url(#SVGID_00000108294566818903835230000004200652006537892236_);">
			<use xlink:href="#SVGID_00000089567262807614989570000009267273419749365678_"  style="overflow:visible;"/>
		</clipPath>
		
			<g transform="matrix(1 0 0 1 0 0)" style="display:none;clip-path:url(#SVGID_00000047028790736494331910000013674151388814942626_);">
			
				<image style="display:inline;overflow:visible;" width="589" height="485" xlink:href="C73A0E9.jpg"  transform="matrix(0.1589 0 0 -0.159 11.5767 175.1916)">
			</image>
		</g>
	</g>
	<g>
		<defs>
			<path id="SVGID_00000047770570255807202020000011071615637696025263_" d="M40.1,147.3c0.6,0.9,1.3,1.8,2,2.7
				c1.4,1.8,3,3.6,5.6,4.9c2.7,1.3,6.4,2.1,9.8,2c3.4-0.1,6.4-1.1,9.1-2.7c1.5-0.9,2.9-2.1,4.3-3.3c-1.4-1.6-3.2-3.3-4.9-4.7
				c-2.4-1.9-4.9-3-8.2-3.4c-0.4,0-0.8-0.1-1.2-0.1c-3.1-0.2-6.7,0.1-9.7,0.9c-2,0.5-3.8,1.3-5.5,2.2c0.9-1.6,1.8-3.2,2.4-5.2
				c1-2.9,1.4-6.5,1.3-9.6c0-0.4,0-0.8-0.1-1.2c-0.3-3.3-1.4-5.9-3.2-8.5c-1.4-1.9-3.2-3.8-4.7-5.3c-1.3,1.2-2.6,2.5-3.6,3.9
				c-1.9,2.5-3,5.4-3.2,8.8c-0.2,3.4,0.5,7.2,1.7,9.9c1.3,2.8,3.1,4.5,4.9,6C37.9,145.6,39,146.5,40.1,147.3L40.1,147.3z
				 M25.4,163.3c-0.4,0.2-0.8,0.4-1.2,0.6c-0.1,0.1-0.1,0.1-0.2,0.2c0.8,1.2,1.7,2.4,2.6,3.6c1.5,1.9,3.2,3.9,6.1,5.3
				c2.9,1.4,6.9,2.3,10.6,2.2c3.7-0.1,6.9-1.1,9.8-3c1.6-1,3.1-2.2,4.6-3.6c-1.6-1.7-3.4-3.6-5.3-5.1c-2.6-2-5.3-3.2-8.9-3.7
				c-0.4-0.1-0.8-0.1-1.3-0.1c-3.3-0.2-7.2,0.1-10.5,1C29.4,161.3,27.4,162.2,25.4,163.3L25.4,163.3z M63.9,128.1
				c-0.2,0.4-0.4,0.7-0.6,1.1c-0.1,0.1-0.1,0.1-0.2,0.2c-1.2-0.8-2.3-1.6-3.5-2.5c-1.9-1.5-3.8-3.1-5.2-5.7
				c-1.4-2.7-2.3-6.5-2.3-9.8c0-3.4,1-6.3,2.7-8.9c1-1.5,2.1-2.8,3.4-4.1c1.7,1.5,3.5,3.3,5,5.1c2,2.5,3.2,5,3.7,8.3
				c0.1,0.4,0.1,0.8,0.1,1.2c0.3,3.1,0,6.6-0.8,9.6C65.7,124.4,64.8,126.3,63.9,128.1L63.9,128.1z M23.7,159.8
				c-0.2,0.4-0.5,0.7-0.7,1.1c-0.1,0.1-0.1,0.1-0.2,0.2c-1.2-0.9-2.5-1.9-3.7-2.9c-2-1.7-4-3.5-5.4-6.4c-1.4-3-2.2-7-1.9-10.6
				c0.2-3.6,1.5-6.7,3.6-9.4c1.1-1.5,2.5-2.9,4-4.2c1.7,1.7,3.7,3.7,5.3,5.7c2.1,2.7,3.3,5.5,3.6,9.1c0,0.4,0.1,0.8,0.1,1.3
				c0.1,3.3-0.4,7.1-1.5,10.2C25.9,156,24.9,158,23.7,159.8L23.7,159.8z M77,120.8c-0.3,0.3-0.5,0.6-0.8,1c0,0.1-0.1,0.1-0.1,0.2
				c1.1,0.7,2.2,1.5,3.3,2.2c1.9,1.2,3.9,2.3,6.7,2.5c2.8,0.2,6.4-0.4,9.4-1.7c3-1.3,5.3-3.3,7.1-5.9c1-1.4,1.8-3,2.6-4.6
				c-1.8-0.9-4-1.9-6-2.6c-2.8-0.9-5.4-1-8.5-0.2c-0.4,0.1-0.7,0.2-1.1,0.3c-2.8,0.9-5.9,2.5-8.2,4.4
				C79.6,117.8,78.2,119.2,77,120.8L77,120.8z M65.5,131.9c-0.4,0.2-0.7,0.4-1.1,0.6c-0.1,0.1-0.1,0.1-0.2,0.2
				c0.8,1.1,1.6,2.2,2.4,3.3c1.4,1.8,3,3.6,5.6,4.9c2.7,1.3,6.4,2.1,9.8,2c3.4-0.1,6.4-1.1,9.1-2.7c1.5-0.9,2.9-2.1,4.3-3.3
				c-1.4-1.6-3.2-3.3-4.9-4.7c-2.4-1.9-4.9-3-8.2-3.4c-0.4,0-0.8-0.1-1.2-0.1c-3.1-0.2-6.7,0.1-9.7,0.9
				C69.2,130.1,67.3,131,65.5,131.9L65.5,131.9z"/>
		</defs>
		<clipPath id="SVGID_00000143614654292581180910000006651145788112652991_">
			<use xlink:href="#SVGID_00000047770570255807202020000011071615637696025263_"  style="overflow:visible;"/>
		</clipPath>
		
			<path style="clip-path:url(#SVGID_00000143614654292581180910000006651145788112652991_);fill-rule:evenodd;clip-rule:evenodd;fill:#00C000;" d="
			M20.3,147.3c-0.2-1.1-0.5-3.1-0.7-5.4c-0.2-2.3-0.3-5-0.3-7.3c0-2.2,0-4-0.1-4.9c0-0.9-0.1-0.8-0.2-0.5c-0.1,0.3-0.1,0.9-0.3,2.9
			c-0.1,2-0.3,5.5-0.2,8.9c0.2,3.4,0.7,6.6,1.1,8.3c0.4,1.7,0.7,1.8,0.8,1.4c0.2-0.3,0.2-1.1,0.2-1.6
			C20.6,148.7,20.5,148.4,20.3,147.3L20.3,147.3z"/>
		
			<path style="clip-path:url(#SVGID_00000143614654292581180910000006651145788112652991_);fill-rule:evenodd;clip-rule:evenodd;fill:#00C000;" d="
			M37.7,138.1c-0.2-1.2-0.5-3.3-0.8-5.8c-0.2-2.5-0.4-5.4-0.5-7.8c-0.1-2.4-0.1-4.3-0.2-5.2c-0.1-0.9-0.1-0.8-0.2-0.5
			c-0.1,0.3-0.1,1-0.2,3.1c-0.1,2.2-0.2,5.9,0,9.5c0.2,3.6,0.8,7.1,1.3,8.9c0.4,1.8,0.7,1.9,0.9,1.5c0.2-0.4,0.2-1.2,0.1-1.7
			C38.1,139.6,38,139.3,37.7,138.1L37.7,138.1z"/>
		
			<path style="clip-path:url(#SVGID_00000143614654292581180910000006651145788112652991_);fill-rule:evenodd;clip-rule:evenodd;fill:#00C000;" d="
			M59.4,119.6c-0.2-1.2-0.5-3.3-0.8-5.8c-0.2-2.5-0.4-5.4-0.5-7.8c-0.1-2.4-0.1-4.3-0.2-5.2c-0.1-0.9-0.1-0.8-0.2-0.5
			c-0.1,0.3-0.1,1-0.2,3.1c-0.1,2.2-0.2,5.9,0,9.5c0.2,3.6,0.8,7.1,1.3,8.9c0.4,1.8,0.7,1.9,0.9,1.5c0.2-0.4,0.2-1.2,0.1-1.7
			C59.8,121.1,59.6,120.8,59.4,119.6L59.4,119.6z"/>
		
			<path style="clip-path:url(#SVGID_00000143614654292581180910000006651145788112652991_);fill-rule:evenodd;clip-rule:evenodd;fill:#00C000;" d="
			M83.4,120.6c1.1-0.5,3.1-1.2,5.5-1.9c2.4-0.7,5.2-1.5,7.5-2.1c2.3-0.6,4.2-1,5.1-1.2c0.9-0.2,0.8-0.3,0.4-0.3
			c-0.4,0-1,0.1-3.1,0.4c-2.1,0.4-5.8,1-9.3,2c-3.5,1-6.8,2.3-8.4,3.1c-1.7,0.8-1.7,1.1-1.3,1.2c0.4,0.1,1.2-0.1,1.7-0.2
			C82,121.3,82.3,121,83.4,120.6L83.4,120.6z"/>
		
			<path style="clip-path:url(#SVGID_00000143614654292581180910000006651145788112652991_);fill-rule:evenodd;clip-rule:evenodd;fill:#00C000;" d="
			M73.1,138.1c1.2-0.2,3.3-0.4,5.8-0.6c2.5-0.2,5.4-0.2,7.8-0.2c2.4,0,4.3,0,5.2,0c0.9,0,0.8-0.1,0.5-0.2c-0.3-0.1-1-0.2-3.1-0.3
			c-2.2-0.2-5.9-0.4-9.5-0.2c-3.6,0.1-7.1,0.6-8.9,1c-1.8,0.4-1.9,0.6-1.6,0.8c0.4,0.2,1.2,0.2,1.7,0.2
			C71.6,138.4,71.9,138.3,73.1,138.1L73.1,138.1z"/>
		
			<path style="clip-path:url(#SVGID_00000143614654292581180910000006651145788112652991_);fill-rule:evenodd;clip-rule:evenodd;fill:#00C000;" d="
			M47.1,149.1c1.3,0.3,3.6,0.7,6.3,1c2.7,0.3,5.8,0.6,8.5,0.8c2.6,0.2,4.7,0.3,5.7,0.4c1,0.1,0.9,0.2,0.5,0.2
			c-0.4,0.1-1.1,0.1-3.4,0.1c-2.4,0-6.4-0.1-10.4-0.5c-3.9-0.4-7.7-1.1-9.6-1.7c-1.9-0.5-2-0.8-1.6-0.9c0.4-0.1,1.3-0.1,1.9,0
			C45.4,148.6,45.8,148.8,47.1,149.1L47.1,149.1z"/>
		
			<path style="clip-path:url(#SVGID_00000143614654292581180910000006651145788112652991_);fill-rule:evenodd;clip-rule:evenodd;fill:#00C000;" d="
			M31.8,164.7c1.5,0.4,4,1,7.1,1.6c3.1,0.6,6.6,1.1,9.6,1.6c3,0.4,5.3,0.7,6.4,0.9c1.1,0.2,1,0.3,0.6,0.3c-0.4,0-1.2,0-3.9-0.2
			c-2.7-0.2-7.3-0.6-11.7-1.4c-4.4-0.7-8.7-1.8-10.9-2.5c-2.2-0.7-2.3-1-1.9-1.1c0.4-0.1,1.5,0,2.1,0.1
			C30,164.1,30.3,164.3,31.8,164.7L31.8,164.7z"/>
	</g>
	<path class="st2" d="M48.8,138.9c-0.7,0.6-2.2,1.8-3.4,2.7c-1.3,0.9-2.4,1.6-3.3,2.7c-0.9,1.1-1.7,2.5-1.6,3.2
		c0.1,0.7,1,0.8,1.6,0.4c0.6-0.4,0.9-1.3,1.2-2.1c0.3-0.8,0.7-1.5,1.5-2.2c0.8-0.7,1.9-1.5,2.9-2.2c1-0.6,2-1.1,3.1-1.4
		c1.1-0.3,2.2-0.4,2.5-1.1c0.3-0.7-0.2-1.9-0.7-2.2c-0.5-0.3-1.1,0.3-1.6,0.6c-0.5,0.4-0.9,0.6-1.1,0.7
		C49.6,138.1,49.6,138.2,48.8,138.9L48.8,138.9z M22.8,162.8c-1.5,1.6-3.9,4.6-6.5,8.4c-2.6,3.8-5.4,8.3-7,11
		c-1.6,2.7-1.8,3.5-1.8,4c0,0.5,0.4,0.7,0.8,0.7c0.4,0,0.7-0.2,1-0.7c0.4-0.5,0.7-1.1,1.6-2.8c0.9-1.7,2.4-4.4,4-7
		c1.6-2.6,3.4-5,5.2-7.4c1.7-2.3,3.4-4.6,5.3-6.3c1.9-1.7,3.9-2.8,4-4.1c0.2-1.4-1.5-3-2.7-2.8c-1.2,0.2-1.8,2.3-2,3.4
		c-0.1,1.1,0.2,1.3,0.1,1.5C24.8,160.9,24.3,161.1,22.8,162.8L22.8,162.8z"/>
	<path class="st3" d="M29.9,138.3c7.5-1.5,14.6,3.1,15.8,10.2c1.2,7.2-4,14.2-11.5,15.7c-7.5,1.5-14.6-3.1-15.8-10.2
		C17.2,146.9,22.4,139.8,29.9,138.3L29.9,138.3z"/>
	<path class="st4" d="M29.9,138.3c3.5-0.7,6.8-0.1,9.5,1.4c1.6,2,2.5,4.5,2.5,7.1c0,6.7-6,12.2-13.3,12.2c-4,0-7.6-1.6-10.1-4.2
		c-0.1-0.3-0.1-0.6-0.2-0.8C17.2,146.9,22.4,139.8,29.9,138.3L29.9,138.3z"/>
	<path class="st5" d="M28.9,141.3c1.2-0.2,2.2,0.4,2.3,1.3c0.1,0.9-0.7,1.9-1.9,2.1c-1.2,0.2-2.2-0.4-2.3-1.3
		C26.9,142.4,27.7,141.5,28.9,141.3L28.9,141.3z"/>
	<path class="st6" d="M38.2,141.9c-1.9,0-3.5,1.4-3.5,3.2c0,1.8,1.5,3.2,3.5,3.2c1.9,0,3.5-1.4,3.5-3.2
		C41.6,143.3,40.1,141.9,38.2,141.9L38.2,141.9z"/>
	<path class="st5" d="M27,146.8c0.3,0.4,0.8,0.8,1.1,0.9c0.4,0.1,0.6,0.1,1.1-0.2c0.5-0.3,1.2-0.8,1.9-1.1c0.7-0.3,1.4-0.4,1.8-0.5
		c0.4-0.1,0.5-0.2,0.5-0.5c0-0.3-0.2-0.9-0.1-1.3c0.1-0.4,0.5-0.7,0.7-1c0.2-0.3,0.2-0.7,0.1-0.9c-0.1-0.3-0.4-0.5-0.7-0.6
		c-0.3-0.1-0.6-0.2-1-0.4c0.4,0.4,0.7,0.9,0.7,1.5c0.2,1.8-1.3,3.5-3.5,3.8c-2.2,0.4-4.1-0.7-4.3-2.5c-0.2-1.8,1.3-3.5,3.5-3.8
		c1-0.2,1.9,0,2.6,0.3c-0.4-0.3-0.8-0.6-1.1-0.8c-0.5-0.3-0.8-0.3-1.1-0.1c-0.3,0.2-0.5,0.5-1.1,0.7c-0.5,0.2-1.3,0.3-1.9,0.4
		c-0.6,0.1-1,0.3-1.1,0.5c-0.1,0.2,0,0.6,0.1,0.9c0.1,0.3,0.2,0.5,0,0.8c-0.2,0.3-0.6,0.8-0.7,1.2c-0.2,0.4,0,0.7,0.2,1
		c0.2,0.3,0.5,0.5,0.8,0.6c0.3,0.1,0.6,0.2,0.8,0.4C26.5,146,26.7,146.4,27,146.8L27,146.8z"/>
	<path class="st7" d="M29,142c0.6-0.1,1.2,0.2,1.3,0.7c0.1,0.5-0.4,1-1,1.1c-0.6,0.1-1.2-0.2-1.3-0.7C27.9,142.7,28.3,142.2,29,142
		L29,142z"/>
	<path class="st3" d="M56.8,111.7c6.5,0.5,11.1,5.5,10.3,11.2c-0.8,5.6-6.6,9.8-13.1,9.3c-6.5-0.5-11.1-5.5-10.3-11.2
		C44.5,115.4,50.3,111.2,56.8,111.7L56.8,111.7z"/>
	<path class="st4" d="M56.8,111.7c3,0.2,5.5,1.4,7.4,3.2c0.8,1.9,1,3.9,0.3,5.9c-1.6,5.1-7.8,7.9-13.7,6.3c-3.3-0.9-5.8-2.9-7.2-5.4
		c0-0.2,0-0.4,0.1-0.7C44.5,115.4,50.3,111.2,56.8,111.7L56.8,111.7z"/>
	<path class="st5" d="M55.3,113.7c1,0.1,1.7,0.8,1.6,1.5c-0.1,0.7-1,1.2-2,1.1c-1-0.1-1.7-0.8-1.6-1.5
		C53.4,114.1,54.3,113.6,55.3,113.7L55.3,113.7z"/>
	<path class="st6" d="M62.6,116.2c-1.5-0.4-3.1,0.3-3.6,1.7c-0.4,1.3,0.5,2.8,2,3.2c1.5,0.4,3.1-0.3,3.6-1.7
		C65.1,118.1,64.2,116.7,62.6,116.2L62.6,116.2z"/>
	<path class="st5" d="M52.4,117.5c0.2,0.4,0.4,0.7,0.7,0.9c0.3,0.2,0.5,0.2,1,0.1c0.5-0.1,1.1-0.3,1.8-0.4c0.6-0.1,1.2,0,1.6,0
		c0.3,0,0.5,0,0.5-0.3c0.1-0.2,0.1-0.7,0.3-1c0.2-0.3,0.6-0.4,0.8-0.6c0.2-0.2,0.3-0.5,0.3-0.7c0-0.2-0.2-0.4-0.4-0.6
		c-0.2-0.1-0.4-0.3-0.7-0.5c0.2,0.4,0.3,0.8,0.2,1.3c-0.2,1.4-1.9,2.3-3.8,2.1c-1.8-0.2-3.2-1.5-2.9-2.8c0.2-1.4,1.9-2.3,3.8-2.1
		c0.8,0.1,1.5,0.4,2,0.8c-0.2-0.3-0.5-0.7-0.7-0.9c-0.3-0.4-0.6-0.4-0.8-0.3c-0.3,0.1-0.6,0.2-1,0.3c-0.5,0-1.1-0.1-1.6-0.1
		c-0.5,0-0.9,0-1.1,0.1c-0.2,0.2-0.1,0.4-0.1,0.7c0,0.2,0,0.4-0.2,0.6c-0.2,0.2-0.7,0.5-0.9,0.7c-0.2,0.3-0.2,0.5-0.1,0.8
		c0.1,0.2,0.3,0.5,0.5,0.6c0.2,0.2,0.4,0.3,0.6,0.5C52.2,116.8,52.2,117.1,52.4,117.5L52.4,117.5z"/>
	<path class="st7" d="M55.2,114.3c0.5,0.1,0.9,0.4,0.9,0.8c-0.1,0.4-0.6,0.7-1.1,0.6c-0.5-0.1-0.9-0.4-0.9-0.8
		C54.1,114.6,54.6,114.3,55.2,114.3L55.2,114.3z"/>
	<path class="st3" d="M76.5,118.3c6.6,0.6,11.4,6.2,10.6,12.5c-0.8,6.3-6.8,11-13.5,10.4c-6.6-0.6-11.4-6.2-10.6-12.5
		C63.8,122.4,69.9,117.8,76.5,118.3L76.5,118.3z"/>
	<path class="st4" d="M76.5,118.3c3,0.3,5.7,1.6,7.6,3.5c0.8,2.1,1,4.4,0.3,6.6c-1.7,5.7-8,8.8-14.1,7c-3.3-1-5.9-3.3-7.3-6
		c0-0.2,0-0.5,0.1-0.7C63.8,122.4,69.9,117.8,76.5,118.3L76.5,118.3z"/>
	<path class="st5" d="M74.9,120.6c1,0.1,1.7,0.9,1.6,1.7c-0.1,0.8-1.1,1.4-2.1,1.3c-1-0.1-1.7-0.9-1.6-1.7
		C73,121,73.9,120.4,74.9,120.6L74.9,120.6z"/>
	<path class="st6" d="M82.5,123.4c-1.6-0.5-3.2,0.4-3.7,1.9c-0.4,1.5,0.5,3.1,2.1,3.6c1.6,0.5,3.2-0.4,3.7-1.9
		C85,125.4,84,123.8,82.5,123.4L82.5,123.4z"/>
	<path class="st5" d="M72,124.7c0.2,0.4,0.5,0.8,0.7,1c0.3,0.2,0.5,0.2,1,0.1c0.5-0.1,1.2-0.4,1.8-0.4c0.6-0.1,1.2,0,1.6,0
		c0.4,0,0.5,0,0.5-0.3c0.1-0.3,0.1-0.8,0.3-1.1c0.2-0.3,0.6-0.5,0.8-0.7c0.2-0.2,0.3-0.5,0.3-0.8c0-0.3-0.2-0.5-0.4-0.7
		c-0.2-0.2-0.4-0.3-0.7-0.6c0.2,0.4,0.3,0.9,0.2,1.4c-0.2,1.5-2,2.6-3.9,2.4c-1.9-0.2-3.2-1.6-3-3.2c0.2-1.5,2-2.6,3.9-2.4
		c0.8,0.1,1.6,0.4,2.1,0.9c-0.3-0.4-0.5-0.7-0.7-1c-0.3-0.4-0.6-0.4-0.8-0.4c-0.3,0.1-0.6,0.3-1.1,0.3c-0.5,0-1.1-0.1-1.7-0.1
		c-0.5,0-0.9,0-1.1,0.2c-0.2,0.2-0.1,0.5-0.1,0.7c0,0.3,0,0.5-0.2,0.7c-0.2,0.2-0.7,0.5-0.9,0.8c-0.2,0.3-0.2,0.6-0.1,0.9
		c0.1,0.3,0.3,0.5,0.5,0.7c0.2,0.2,0.4,0.3,0.6,0.5C71.8,124,71.8,124.3,72,124.7L72,124.7z"/>
	<path class="st7" d="M74.8,121.2c0.6,0.1,1,0.5,0.9,0.9c-0.1,0.5-0.6,0.8-1.1,0.7c-0.6-0.1-1-0.5-0.9-0.9
		C73.7,121.5,74.2,121.2,74.8,121.2L74.8,121.2z"/>
	<path class="st3" d="M60,123.8c5.9,0.7,10,5.9,9.1,11.5c-0.9,5.6-6.4,9.6-12.3,8.9c-5.9-0.7-10-5.9-9.1-11.5
		C48.5,127,54,123.1,60,123.8L60,123.8z"/>
	<path class="st4" d="M60,123.8c2.7,0.3,5,1.6,6.7,3.4c0.7,1.9,0.8,3.9,0.1,5.9c-1.6,5-7.4,7.6-12.8,5.8c-3-1-5.2-3.1-6.4-5.6
		c0-0.2,0-0.4,0.1-0.7C48.5,127,54,123.1,60,123.8L60,123.8z"/>
	<path class="st5" d="M58.5,125.7c0.9,0.1,1.5,0.8,1.4,1.6c-0.1,0.7-1,1.2-1.9,1.1c-0.9-0.1-1.5-0.8-1.4-1.6
		C56.7,126.1,57.6,125.6,58.5,125.7L58.5,125.7z"/>
	<path class="st6" d="M65.2,128.5c-1.4-0.5-2.9,0.2-3.3,1.6c-0.4,1.3,0.4,2.8,1.8,3.2c1.4,0.5,2.9-0.2,3.3-1.6
		C67.4,130.4,66.6,128.9,65.2,128.5L65.2,128.5z"/>
	<path class="st5" d="M55.8,129.4c0.1,0.4,0.4,0.7,0.6,0.9c0.2,0.2,0.5,0.2,0.9,0.1c0.4-0.1,1.1-0.3,1.6-0.3c0.6-0.1,1.1,0,1.4,0.1
		c0.3,0,0.4,0,0.5-0.3c0.1-0.2,0.1-0.7,0.3-1c0.2-0.3,0.5-0.4,0.8-0.6c0.2-0.2,0.3-0.5,0.3-0.7c0-0.2-0.2-0.4-0.4-0.6
		c-0.2-0.1-0.4-0.3-0.6-0.6c0.2,0.4,0.3,0.8,0.2,1.3c-0.3,1.4-1.8,2.3-3.5,2c-1.7-0.3-2.8-1.6-2.6-2.9c0.3-1.4,1.8-2.3,3.5-2
		c0.7,0.1,1.4,0.4,1.8,0.9c-0.2-0.3-0.4-0.7-0.6-0.9c-0.3-0.4-0.5-0.4-0.7-0.3c-0.2,0.1-0.5,0.2-1,0.2c-0.4,0-1-0.1-1.5-0.2
		c-0.5-0.1-0.8,0-1,0.1c-0.2,0.1-0.1,0.4-0.1,0.7c0,0.2,0,0.4-0.2,0.6c-0.2,0.2-0.6,0.4-0.8,0.7c-0.2,0.2-0.2,0.5-0.1,0.8
		c0.1,0.2,0.3,0.5,0.5,0.6c0.2,0.2,0.4,0.3,0.5,0.5C55.6,128.6,55.6,129,55.8,129.4L55.8,129.4z"/>
	<path class="st7" d="M58.4,126.3c0.5,0.1,0.8,0.5,0.8,0.9c-0.1,0.4-0.5,0.7-1,0.6c-0.5-0.1-0.8-0.5-0.8-0.9
		C57.4,126.5,57.9,126.2,58.4,126.3L58.4,126.3z"/>
	<path class="st8" d="M197.3,164c0-22.4,23.8-20.6,23.8-4v4C221,183.1,197.3,182.7,197.3,164L197.3,164z M239.4,127.2
		c0.1,10,11.3,4.7,7.5-1.3C243.8,122,240.1,125.1,239.4,127.2L239.4,127.2z M240.2,183.1h6.6v-40.3h-6.6V183.1L240.2,183.1z
		 M172.2,149.5v-6.6h-6.6v40.3h6.6c0-12.7-3.1-35,9.9-35c1.7,0,3.5,0.8,4.6,1.3v-7.3c-4.6,0-7.5-0.6-10.8,2.4
		c-1,0.9-1.1,1.2-1.8,2.2c-0.1,0.2-0.5,0.7-0.8,1.2C172.7,148.8,172.7,148.8,172.2,149.5L172.2,149.5z M98.9,162
		c0,7.8-1.5,15.8-9.2,15.8c-1.9,0-3.4-0.9-5.3-1.3v6.6c10.3,4.9,21.1-4.4,21.1-17.2v-39.6h-6.6V162L98.9,162z M122.6,164
		c0-22.4,25.8-21.1,25.8-3.3c0,5.6,0.5,10.4-4,14.5C136.3,182.5,122.6,176.6,122.6,164L122.6,164z M116,161.3
		c0,6.8,0.5,12.6,5.5,17.6c10,10.1,34.1,7,34.1-16.3C155.6,133,116,136.2,116,161.3L116,161.3z M275.8,147.5c5.9,0,9.2,5.2,9.2,11.2
		H264C265.4,152.5,268.3,147.5,275.8,147.5L275.8,147.5z M256.7,163.3c0,21.7,20.2,25.3,32.4,17.2v-6.6c-11.9,8-25.1,4.8-25.1-9.2
		c33.2,0,28.8,2,27.7-7.3C289,133.1,256.7,137.7,256.7,163.3L256.7,163.3z M221,147.5c-3.9-2.6-4.7-5.9-11.9-5.9
		c-24.7,0-24.4,42.9-2,42.9c2.5,0,6.6-1.2,8.3-2.2c3.2-1.9,3.9-3.9,5.6-5v5.9h6.6V123H221V147.5L221,147.5z"/>
	<path class="st9" d="M169.4,190.5v10.2h1v1.2h-3.5v-1.2h1v-10.2h-1v-1.2h3.5v1.2H169.4L169.4,190.5z M177,193.9
		c0.7-0.8,1.6-1.2,2.7-1.2c1,0,1.9,0.3,2.5,1c0.7,0.7,0.9,1.7,0.9,2.6v5.4h-1.4v-5.4c0-0.6-0.1-1.2-0.6-1.7c-0.4-0.4-1-0.6-1.6-0.6
		c-0.7,0-1.4,0.2-1.9,0.7c-0.6,0.6-0.7,1.5-0.7,2.3v4.6h-1.4v-8.8h1.4V193.9L177,193.9z M192.3,200l2.9-7.1h1.5l-3.6,8.8h-1.6
		l-3.6-8.8h1.5L192.3,200L192.3,200z M202.2,198c0.1,0.7,0.4,1.3,1,1.8c0.6,0.5,1.4,0.7,2.2,0.7c0.6,0,1.1-0.1,1.6-0.4
		c0.4-0.2,0.8-0.6,1-1l0.1-0.1l1.3,0.7l-0.1,0.1c-0.4,0.6-0.9,1.1-1.6,1.5c-0.7,0.4-1.5,0.5-2.3,0.5c-1.3,0-2.4-0.4-3.4-1.3
		c-0.9-0.9-1.3-2-1.3-3.3c0-1.3,0.4-2.4,1.3-3.3c0.9-0.9,2-1.3,3.3-1.3c1.3,0,2.3,0.4,3.2,1.4c0.8,0.9,1.2,2,1.2,3.3
		c0,0.2,0,0.4,0,0.5l0,0.1H202.2L202.2,198z M216.6,193.9c0.6-0.8,1.5-1.2,2.5-1.2h0.1v1.4h-0.1c-0.7,0-1.3,0.2-1.8,0.6
		c-0.6,0.5-0.7,1.3-0.7,2v4.9h-1.4v-8.8h1.4V193.9L216.6,193.9z M225.3,195.3c0,0.3,0.2,0.6,0.4,0.8c0.4,0.2,0.8,0.4,1.2,0.5
		c0.5,0.1,1,0.3,1.5,0.4c0.5,0.1,0.9,0.4,1.3,0.8c0.4,0.4,0.5,1,0.5,1.5c0,0.8-0.3,1.4-0.9,1.9c-0.7,0.5-1.5,0.7-2.3,0.7
		c-0.8,0-1.5-0.2-2.2-0.6c-0.6-0.4-1-0.8-1.3-1.5l0-0.1l1.2-0.7l0.1,0.2c0.2,0.4,0.4,0.7,0.8,1c0.4,0.3,0.9,0.4,1.4,0.4
		c0.5,0,0.9-0.1,1.3-0.3c0.3-0.2,0.5-0.5,0.5-0.9c0-0.3-0.2-0.6-0.4-0.8c-0.4-0.2-0.8-0.4-1.2-0.5c-0.5-0.1-1-0.3-1.5-0.4
		c-0.5-0.1-0.9-0.4-1.3-0.8c-0.4-0.4-0.6-0.9-0.6-1.5c0-0.8,0.3-1.4,0.9-1.8c0.6-0.5,1.4-0.7,2.2-0.7c0.7,0,1.3,0.1,1.9,0.5
		c0.5,0.3,0.9,0.8,1.2,1.3l0.1,0.1l-1.2,0.7l-0.1-0.2c-0.3-0.8-1.1-1.1-1.9-1.1c-0.4,0-0.8,0.1-1.2,0.3
		C225.5,194.6,225.3,194.9,225.3,195.3L225.3,195.3z M237.1,191.1c-0.2,0.2-0.4,0.3-0.7,0.3c-0.3,0-0.5-0.1-0.7-0.3
		c-0.2-0.2-0.3-0.4-0.3-0.7s0.1-0.5,0.3-0.7c0.2-0.2,0.4-0.3,0.7-0.3c0.3,0,0.5,0.1,0.7,0.3c0.2,0.2,0.3,0.4,0.3,0.7
		S237.3,190.9,237.1,191.1L237.1,191.1z M235.8,201.7v-8.8h1.4v8.8H235.8L235.8,201.7z M250.6,200.6c-0.9,0.9-2,1.3-3.3,1.3
		c-1.3,0-2.4-0.4-3.3-1.3c-0.9-0.9-1.3-2-1.3-3.3c0-1.3,0.4-2.4,1.3-3.3c0.9-0.9,2-1.3,3.3-1.3c1.3,0,2.4,0.4,3.3,1.3
		c0.9,0.9,1.3,2,1.3,3.3C252,198.6,251.5,199.7,250.6,200.6L250.6,200.6z M258.9,193.9c0.7-0.8,1.6-1.2,2.7-1.2c1,0,1.9,0.3,2.5,1
		c0.7,0.7,0.9,1.7,0.9,2.6v5.4h-1.4v-5.4c0-0.6-0.1-1.2-0.6-1.7c-0.4-0.4-1-0.6-1.6-0.6c-0.7,0-1.4,0.2-1.9,0.7
		c-0.6,0.6-0.7,1.5-0.7,2.3v4.6h-1.4v-8.8h1.4V193.9L258.9,193.9z M271.9,198c0.1,0.7,0.4,1.3,1,1.8c0.6,0.5,1.4,0.7,2.2,0.7
		c0.6,0,1.1-0.1,1.6-0.4c0.4-0.2,0.8-0.6,1-1l0.1-0.1l1.3,0.7l-0.1,0.1c-0.4,0.6-0.9,1.1-1.6,1.5c-0.7,0.4-1.5,0.5-2.3,0.5
		c-1.3,0-2.4-0.4-3.4-1.3c-0.9-0.9-1.3-2-1.3-3.3c0-1.3,0.4-2.4,1.3-3.3c0.9-0.9,2-1.3,3.3-1.3c1.3,0,2.3,0.4,3.2,1.4
		c0.8,0.9,1.2,2,1.2,3.3c0,0.2,0,0.4,0,0.5l0,0.1H271.9L271.9,198z M285.7,195.3c0,0.3,0.2,0.6,0.4,0.8c0.4,0.2,0.8,0.4,1.2,0.5
		c0.5,0.1,1,0.3,1.5,0.4c0.5,0.1,0.9,0.4,1.3,0.8c0.4,0.4,0.5,1,0.5,1.5c0,0.8-0.3,1.4-0.9,1.9c-0.7,0.5-1.5,0.7-2.3,0.7
		c-0.8,0-1.5-0.2-2.2-0.6c-0.6-0.4-1-0.8-1.3-1.5l0-0.1l1.2-0.7l0.1,0.2c0.2,0.4,0.4,0.7,0.8,1c0.4,0.3,0.9,0.4,1.4,0.4
		c0.5,0,0.9-0.1,1.3-0.3c0.3-0.2,0.5-0.5,0.5-0.9c0-0.3-0.2-0.6-0.4-0.8c-0.4-0.2-0.8-0.4-1.2-0.5c-0.5-0.1-1-0.3-1.5-0.4
		c-0.5-0.1-0.9-0.4-1.3-0.8c-0.4-0.4-0.6-0.9-0.6-1.5c0-0.8,0.3-1.4,0.9-1.8c0.6-0.5,1.4-0.7,2.2-0.7c0.7,0,1.3,0.1,1.9,0.5
		c0.5,0.3,0.9,0.8,1.2,1.3l0.1,0.1l-1.2,0.7l-0.1-0.2c-0.3-0.8-1.1-1.1-1.9-1.1c-0.4,0-0.8,0.1-1.2,0.3
		C285.9,194.6,285.7,194.9,285.7,195.3L285.7,195.3z M202.2,196.6h6c-0.1-0.7-0.4-1.3-1-1.8c-0.6-0.5-1.2-0.7-1.9-0.7
		c-0.8,0-1.5,0.2-2.1,0.8C202.7,195.3,202.4,195.9,202.2,196.6L202.2,196.6z M245.1,199.6c0.6,0.6,1.4,0.9,2.3,0.9
		c0.9,0,1.6-0.3,2.3-0.9c0.6-0.6,0.9-1.4,0.9-2.3c0-0.9-0.3-1.7-0.9-2.3c-0.6-0.6-1.4-0.9-2.3-0.9c-0.9,0-1.6,0.3-2.3,0.9
		c-0.6,0.6-0.9,1.4-0.9,2.3C244.1,198.2,244.4,199,245.1,199.6L245.1,199.6z M271.9,196.6h6c-0.1-0.7-0.4-1.3-1-1.8
		c-0.6-0.5-1.2-0.7-1.9-0.7c-0.8,0-1.5,0.2-2.1,0.8C272.4,195.3,272.1,195.9,271.9,196.6L271.9,196.6z"/>
</g>
<g class="st10">
	<path class="st11" d="M189.2,266.3h-0.8c-5.1,0-7.3-7.4-0.4-9.1c2.4-0.6,5-0.8,8-0.8c0,2.9-0.2,4.9-2,7.1
		C193,265,191.2,266.3,189.2,266.3L189.2,266.3z M145.1,238.6v2.3h4.2v21.3c0,3.6,1.3,6.4,5,6.4l2.3-0.1v-2.7
		c-2.3,0-4.1,0.3-4.1-3.9v-23.6h-7.1C145.2,238.2,145.1,238.3,145.1,238.6L145.1,238.6z M111,238.6v6.1h-3.8c-0.6,0-0.4,0.8-0.4,2.4
		c0,0.3,0.1,0.4,0.4,0.4h3.8V260c0,3.9,1.6,7.1,4.9,8.2c0.5,0.2,1.3,0.4,1.8,0.4l3.1,0v-2.9c-2.4,0-3.4,0.2-5.1-1.7
		c-0.7-0.7-1.3-2.4-1.3-3.8v-12.8h5.6c0.6,0,0.4-0.8,0.4-2.4c0-0.3-0.1-0.4-0.4-0.4h-5.6v-6.1c0-0.7-1.2-0.4-3-0.4
		C111.1,238.2,111,238.3,111,238.6L111,238.6z M160.2,250.3c0,4.1,2.8,5.6,6.2,7c1.4,0.5,3.3,1.1,4.6,1.8c1.4,0.7,2.9,1.8,2.9,3.5
		c0,2.4-2.7,3.7-4.9,3.7c-2,0-3.1,0-4.9-0.9c-2-1-1.9-2.4-1.9-4.3c-3.6,0-3-0.5-3,2.2c0,4.1,4.9,5.8,8.1,5.8h0.1
		c2.8,0,4.7-0.1,7-1.7c3.2-2.2,3.6-6.9,0.5-9.5c-2.3-1.8-5.8-2.5-8.5-3.9c-1.7-0.9-2.9-1.7-2.9-3.7c0-4.4,9.6-3.7,9.6-0.7v2h3v-3.1
		c0-2.8-4.7-4.3-7.7-4.3C164.4,244.2,160.2,246.3,160.2,250.3L160.2,250.3z M139.1,263.8c-0.2,1-0.1,1.3-0.1,2.4
		c0,3,3.6,2.3,6.8,2.3v-2.3c0-1-2.9,0.1-3.5-0.7c-0.4-0.6-0.2-11.5-0.2-12.7c0-8.2-7.3-9.8-13.5-7.8c-1.1,0.4-3.3,1.2-3.8,1.9
		c0.1,0.4,0.4,0.9,0.7,1.2c0.3,0.5,0.4,0.7,0.7,1.2c0.6-0.1,0.8-0.4,1.3-0.7c2.8-1.5,7.5-2.5,10.1,0.2c1.1,1.2,1.3,3.3,1.3,5.1h-3.3
		c-5.6,0-12.5,2.1-12.5,7.5c0,2.2,0.3,4.3,2.2,5.8c2.1,1.6,3.8,1.8,6.3,1.8c2.7,0,4.7-1.5,6.2-3.3
		C138.6,264.9,138.9,263.9,139.1,263.8L139.1,263.8z M131.8,266.3c-1.5,0-2.7-0.2-3.8-1.2c-1.4-1.2-1.5-2.4-1.5-4
		c0-2.2,2.6-3.5,4.5-4c2.2-0.6,5.1-0.7,7.9-0.7c0,2.9-0.5,5.1-1.9,6.9C135.9,264.8,134.2,266.3,131.8,266.3L131.8,266.3z M188.6,269
		h-1.3c-1.9-0.1-3.7-0.8-4.9-2c-3.6-3.6-2.7-9.1,1.9-11.3c3.7-1.8,7.5-1.8,11.7-1.8v-1.4c0-7.1-8.2-5.9-11.2-4
		c-0.5,0.3-0.8,0.6-1.3,0.8c-0.3-0.5-1.5-2.1-1.5-2.6c0.4-0.1,0.6-0.3,1-0.5c5.1-3,14.8-3.6,16.2,4.5c0.6,3.5,0.2,10.5,0.2,14.7
		c0.3,0.2,0.4,0.4,0.7,0.4h2.9v2.7h-4.2c-3.4,0-2.4-3.6-2.4-4.6c-0.4,0.4-0.6,1.2-1.3,2c-0.4,0.5-1.1,1.2-1.6,1.5
		C192.1,268.4,190.3,268.9,188.6,269L188.6,269z"/>
	<path class="st12" d="M176.5,121.4c8.2,0.9,13.5-3.2,14.4-11.2C182.7,109.3,177.4,113.4,176.5,121.4L176.5,121.4z"/>
	<path class="st12" d="M200.3,90.6c-7.9-0.6-12.9,3.5-13.5,11.2C194.7,102.4,199.6,98.3,200.3,90.6L200.3,90.6z"/>
	<path class="st12" d="M206.1,100.6c-7.4,0-11.7,4.2-11.7,11.4C201.9,112,206.2,107.8,206.1,100.6L206.1,100.6z"/>
	<path class="st12" d="M208.7,95.9c9.8,0.2,15.6-5.2,15.9-14.7C214.7,81,208.9,86.4,208.7,95.9L208.7,95.9z"/>
	<path class="st12" d="M206.5,112.8c9.5,1.3,15.8-3.4,17.1-12.7C214.1,98.9,207.8,103.5,206.5,112.8L206.5,112.8z"/>
	<path class="st12" d="M181.9,98c-9.7-0.1-15.4,5.4-15.4,14.9C176.2,113,181.8,107.5,181.9,98L181.9,98z"/>
	<path class="st12" d="M205.3,72.2c-9.1,0.8-13.9,6.4-13.2,15.3C201.3,86.8,206.1,81.2,205.3,72.2L205.3,72.2z"/>
	<path class="st12" d="M210.5,51c-8,3.2-10.7,9.5-7.5,17.3C211.1,65.1,213.8,58.7,210.5,51L210.5,51z"/>
	<path class="st12" d="M202.8,115.5c-7.6,0.3-11.8,4.8-11.4,12.2C199,127.3,203.2,122.9,202.8,115.5L202.8,115.5z"/>
	<path class="st12" d="M203.5,128.7c7.8,2.1,13.5-1.1,15.7-8.7C211.4,117.9,205.7,121.1,203.5,128.7L203.5,128.7z"/>
	<path class="st12" d="M194.9,132.6c1.1,7.8,6.3,11.7,14.3,10.7C208.1,135.4,202.9,131.5,194.9,132.6L194.9,132.6z"/>
	<path class="st12" d="M183.5,133.1c-2.1,7.7,1.2,13.4,9.1,15.5C194.7,140.9,191.4,135.2,183.5,133.1L183.5,133.1z"/>
	<path class="st12" d="M177.2,151.4c3.2-8,0.3-14.4-7.8-17.5C166.2,141.9,169.1,148.3,177.2,151.4L177.2,151.4z"/>
	<path class="st12" d="M129.5,151.6c7.8-4.1,9.9-10.9,5.8-18.6C127.4,137.2,125.3,144,129.5,151.6L129.5,151.6z"/>
	<path class="st12" d="M110.7,148.4c9.1-0.8,13.9-6.4,13.1-15.3C114.7,133.9,109.8,139.5,110.7,148.4L110.7,148.4z"/>
	<path class="st12" d="M91.8,137.2c7.6,4.5,14.7,2.9,19.3-4.6C103.5,128.1,96.4,129.8,91.8,137.2L91.8,137.2z"/>
	<path class="st12" d="M172.1,95.2c9.3-1,14.1-6.8,13-15.9C175.8,80.3,171,86.1,172.1,95.2L172.1,95.2z"/>
	<path class="st12" d="M196.9,56.4c-8.5,1.2-12.7,6.7-11.6,15C193.9,70.2,198.1,64.7,196.9,56.4L196.9,56.4z"/>
	<path class="st12" d="M178.7,59.5c-9,3.1-12.3,10-9.1,18.7C178.6,75.1,181.9,68.3,178.7,59.5L178.7,59.5z"/>
	<path class="st12" d="M180.9,35.6c-10,2.4-14.3,9.5-11.8,19.2C179,52.4,183.3,45.4,180.9,35.6L180.9,35.6z"/>
	<path class="st12" d="M161.3,48.4c2.7-8.4-0.8-14.8-9.4-17.5h0C149.2,39.4,152.6,45.8,161.3,48.4L161.3,48.4z"/>
	<path class="st12" d="M197,40.7c-8.3,0.9-12.6,6.1-11.7,14.2C193.6,54.1,197.9,48.9,197,40.7L197,40.7z"/>
	<path class="st12" d="M211.7,78.1c7.7-0.8,11.6-5.6,10.8-13.1C214.8,65.8,210.8,70.6,211.7,78.1L211.7,78.1z"/>
	<path class="st12" d="M160.5,77.5c-5.3,6.6-4.4,13.4,2.3,18.6C168.1,89.5,167.2,82.7,160.5,77.5L160.5,77.5z"/>
	<path class="st12" d="M153.5,104.4c3.5-7.7,0.9-14-6.9-17.4C143.2,94.6,145.7,101,153.5,104.4L153.5,104.4z"/>
	<path class="st12" d="M147.8,81.6c5.2-7.1,4-14.1-3.2-19.1C139.4,69.5,140.6,76.5,147.8,81.6L147.8,81.6z"/>
	<path class="st12" d="M158.1,53.3c-5.5,7.4-4.2,14.8,3.4,20.1C166.9,66,165.6,58.6,158.1,53.3L158.1,53.3z"/>
	<path class="st12" d="M144.9,116c2.2-8.8-1.8-15.2-10.9-17.4C131.8,107.4,135.8,113.8,144.9,116L144.9,116z"/>
	<path class="st12" d="M127.4,103.5c3.5-9.1,0.1-16.3-9.2-19.7C114.7,92.8,118.1,100.1,127.4,103.5L127.4,103.5z"/>
	<path class="st12" d="M107.3,67.3c6-8.1,4.7-16.2-3.7-22.1C97.6,53.4,99,61.4,107.3,67.3L107.3,67.3z"/>
	<path class="st12" d="M137.6,93.3c4.7-7.2,3.2-14.1-4.2-18.7C128.6,81.8,130.1,88.7,137.6,93.3L137.6,93.3z"/>
	<path class="st12" d="M132.8,49.8c-6.4,5.8-6.7,12.8-0.7,19C138.5,63.1,138.7,56.1,132.8,49.8L132.8,49.8z"/>
	<path class="st12" d="M142.5,31.3c-8.8,1.2-13.2,6.9-11.9,15.6C139.4,45.6,143.8,39.9,142.5,31.3L142.5,31.3z"/>
	<path class="st12" d="M149,61.4c4.8-7.1,3.4-13.9-3.9-18.6C140.2,50,141.6,56.7,149,61.4L149,61.4z"/>
	<path class="st12" d="M121.2,36.5c-7.6,4.8-9.1,11.9-4.2,19.3C124.6,51,126.2,43.9,121.2,36.5L121.2,36.5z"/>
	<path class="st12" d="M120.4,106.2c-2.1,7.1,1,12.4,8.3,14.5C130.7,113.6,127.7,108.3,120.4,106.2L120.4,106.2z"/>
	<path class="st12" d="M104.1,72.7c-4.7,7.9-2.6,15.2,5.6,19.8C114.4,84.6,112.3,77.3,104.1,72.7L104.1,72.7z"/>
	<path class="st12" d="M96.5,73.8c3.9-7.7,1.6-14.3-6.3-18C86.3,63.5,88.6,70.1,96.5,73.8L96.5,73.8z"/>
	<path class="st12" d="M100.4,95c0,9.3,5.6,14.7,15.1,14.6C115.5,100.3,110,94.9,100.4,95L100.4,95z"/>
	<path class="st12" d="M116.1,61.4c-3.5,7.8-0.8,14.3,7.2,17.7C126.8,71.3,124.1,64.8,116.1,61.4L116.1,61.4z"/>
	<path class="st12" d="M93.7,92.2c1.9-10.5-3.3-17.7-14-19.5C77.8,83.2,82.9,90.3,93.7,92.2L93.7,92.2z"/>
	<path class="st12" d="M97.5,126.2c-1.5-8-7.1-11.7-15.2-10.3C83.8,123.8,89.3,127.6,97.5,126.2L97.5,126.2z"/>
	<path class="st12" d="M112.2,125.7c0.5-8.7-4.4-13.9-13.2-14.4C98.5,119.9,103.3,125.2,112.2,125.7L112.2,125.7z"/>
	<path class="st12" d="M94.6,109.1c-1.2-10.6-8.2-16.1-19.1-14.9C76.7,104.9,83.7,110.3,94.6,109.1L94.6,109.1z"/>
	<path class="st12" d="M169.4,209.1c-5.7-2.4-7.2-7.4-7.4-8.7c-0.3-1.7-0.4-3.4-0.4-5.3v-63.9v-1.1h25.3v-4.9h-25.3v-18.7h-1.8h-3.2
		c0,0-2.8,14.2-21.6,17.5c-4.8,0.8-10.5,1.1-17.6,1.1v4.9l0.2,0h25.1v66.2c0,12.4,10.3,22.4,22.9,22.4c5.7,0,10.9-2,14.9-5.4l0.1,0
		v-4.9C180.5,208.3,175.4,211.6,169.4,209.1L169.4,209.1z"/>
</g>
</svg>
