<?xml version="1.0" encoding="utf-8"?>
<!-- Generator: Adobe Illustrator 25.4.1, SVG Export Plug-In . SVG Version: 6.00 Build 0)  -->
<svg version="1.1" id="Capa_1" xmlns="http://www.w3.org/2000/svg" xmlns:xlink="http://www.w3.org/1999/xlink" x="0px" y="0px"
	 viewBox="0 0 500 500" style="enable-background:new 0 0 500 500;" xml:space="preserve">
<style type="text/css">
	.st0{display:none;}
	.st1{display:inline;}
	.st2{fill:#527426;}
	.st3{fill:#ED7F1D;}
	.st4{fill:#344B8F;}
	.st5{fill:#262626;}
	.st6{fill:#527425;}
	.st7{fill:#D80000;}
	.st8{fill:#FFFFFF;}
	.st9{fill:#4C8C2B;}
</style>
<g class="st0">
	<g class="st1">
		<path class="st2" d="M256.3,239.6c0,0,50.4-29.6,115.9-16c0,0-21.3,43.2-78.1,60.6C294.2,284.2,283,260,256.3,239.6z"/>
		<path class="st2" d="M235.2,239.6c0,0-50.4-29.6-115.9-16c0,0,21.3,43.2,78.1,60.6C197.4,284.2,208.5,260,235.2,239.6z"/>
		<path class="st3" d="M108.7,174.5c0,0,2.9-97.3,138.9-103.2c0,0,118.5,0.2,135.2,103.2l-95.7,32.2l68.2-57.5l-79,52.4l45.9-72.1
			l-57.1,64.8l20.6-79.8l-34.3,77.3l-5.7-83.7l-6.3,83.7l-34.3-77.3l21,80.3l-57.5-67.4l45.5,72.5l-74.7-50.2l65.2,57.1L108.7,174.5
			z"/>
		<path class="st4" d="M290.1,219.2l92.7-43.6c0,0,2.6,25.8-4.9,37.3C377.9,213,355.6,203.9,290.1,219.2z"/>
		<path class="st4" d="M201.8,219.2l-92.7-43.6c0,0-2.6,25.8,4.9,37.3C114.1,213,136.4,203.9,201.8,219.2z"/>
	</g>
	<g class="st1">
		<g>
			<path class="st4" d="M185.6,365.4v10.4c0,4.7,0.8,8.2,2.4,10.5c1.6,2.3,4.1,3.5,7.4,3.5c3.1,0,5.3-0.9,6.9-2.8
				c1.5-1.8,2.3-4.6,2.3-8.3l0,0v-13.3c0-2.5-0.1-4.6-0.3-6.4c-0.2-1.7-0.6-3.5-1.1-5.3h4.5h4.5c-0.5,1.8-0.9,3.6-1.1,5.3
				c-0.2,1.7-0.3,3.9-0.3,6.4v17c0,2.5,0.1,4.7,0.3,6.4c0.2,1.7,0.6,3.5,1.1,5.3h-3.4h-3.5l0,0v-4.4l0,0l0,0l-1.1,0.9
				c-3.6,2.8-7.4,4.2-11.4,4.2c-4.3,0-7.7-1.5-9.9-4.5c-2.3-3-3.4-7.3-3.4-13.1v-11.8c0-2.5-0.1-4.6-0.3-6.4
				c-0.2-1.7-0.6-3.5-1.1-5.3h4.5h4.5c-0.5,1.8-0.9,3.6-1.1,5.3C185.7,360.7,185.6,362.8,185.6,365.4L185.6,365.4z M221,382.4v-17
				c0-2.5-0.1-4.6-0.3-6.4c-0.2-1.7-0.6-3.5-1.1-5.3h4.5l0,0h5c4.8,0,8.4,1,10.8,3c2.4,2,3.6,5,3.6,8.9c0,4.3-1.4,7.4-4.2,9.4
				c-2.6,1.8-6.7,2.8-12.2,2.9l0,0v4.5c0,2.5,0.1,4.7,0.3,6.4c0.2,1.7,0.6,3.5,1.1,5.3H224h-4.5c0.5-1.8,0.9-3.5,1.1-5.3
				C220.9,387.1,221,385,221,382.4L221,382.4z M227.2,374.9L227.2,374.9c3.3,0,5.8-0.7,7.3-2.1c1.6-1.3,2.4-3.5,2.4-6.5
				c0-2.9-0.7-5.1-2.2-6.5s-3.6-2.2-6.5-2.2h-1l0,0V374.9L227.2,374.9z M246,382.4c-1.5,3.3-2.8,5.7-3.9,7.5c-1,1.7-2.1,3.1-3.2,4.2
				h5.1h5c-0.2-0.9-0.1-2.5,0.5-4.8s1.3-4.6,2.4-7l0.2-0.6l0,0H267l0,0l1.3,3.1c0.9,2,1.5,3.9,1.9,5.6s0.5,3,0.3,3.8h5h5
				c-1-1-2-2.3-3-4s-2.3-4.3-3.9-7.6l-13.8-29.5l0,0L246,382.4L246,382.4z M259.5,364.3L259.5,364.3l5.3,12.2l0,0h-10.5l0,0
				L259.5,364.3L259.5,364.3z M300.7,394.7c-5.7,0-10.4-2-14.2-6c-3.8-4-5.7-9-5.7-15.1c0-5.9,2-10.8,6-14.6c4-3.9,9.1-5.8,15.1-5.8
				c5.7,0,10.5,2,14.2,6c3.8,4,5.7,9.1,5.7,15.1c0,5.9-2,10.7-6,14.6C311.8,392.8,306.8,394.7,300.7,394.7L300.7,394.7z M302,389.8
				c3.8,0,7-1.4,9.5-4.2c2.5-2.8,3.8-6.2,3.8-10.4c0-4.9-1.4-9-4.1-12.3c-2.8-3.3-6.2-4.9-10.4-4.9c-3.8,0-6.9,1.4-9.4,4.2
				c-2.5,2.8-3.8,6.3-3.8,10.4c0,4.9,1.4,9,4.1,12.3C294.4,388.2,297.8,389.8,302,389.8z"/>
		</g>
	</g>
	<g class="st1">
		<path class="st5" d="M186.5,416.1c0.2,0,0.4,0,0.6-0.1c0.2,0,0.4,0,0.6,0c0.8,0,1.6,0.1,2.2,0.3c0.6,0.2,1.1,0.4,1.6,0.7
			c0.4,0.3,0.8,0.6,1,1s0.4,0.7,0.5,1.1c0.1,0.6,0.1,1.2-0.1,1.7c-0.2,0.5-0.5,1-0.9,1.5c-0.4,0.4-0.9,0.8-1.5,1.2
			c-0.6,0.4-1.2,0.6-1.9,0.9c-0.7,0.2-1.4,0.4-2,0.6c-0.7,0.1-1.3,0.2-1.9,0.2c-0.3,0-0.7,0-1.1-0.1c-0.2,0.7-0.4,1.3-0.4,1.9
			c-0.1,0.6-0.1,1.1-0.1,1.5c0,0.2-0.1,0.3-0.2,0.3c-0.2,0-0.3,0-0.5-0.1s-0.4-0.3-0.6-0.5c-0.2-0.2-0.3-0.4-0.3-0.7
			c-0.1-0.4-0.1-0.9,0-1.4s0.2-1.1,0.3-1.7c-0.6-0.3-1-0.8-1.1-1.2l0,0c-0.2-0.3,0.1-0.5,0.7-0.8c0.2,0.4,0.5,0.7,0.7,0.9
			c0.2-0.5,0.4-1,0.6-1.5c0.2-0.5,0.4-1,0.7-1.5c0.2-0.5,0.5-1,0.7-1.4s0.5-0.9,0.7-1.2c-0.5,0.2-1,0.5-1.4,0.9
			c-0.5,0.3-0.9,0.7-1.2,1.1c-0.4,0.4-0.7,0.8-1,1.3c-0.3,0.4-0.5,0.9-0.7,1.3s-0.3,0.8-0.4,1.1c-0.1,0.4-0.1,0.7,0,0.9
			c0,0.1,0,0.2-0.2,0.2s-0.4-0.1-0.7-0.2s-0.5-0.3-0.7-0.4c-0.2-0.2-0.4-0.4-0.4-0.6c0-0.1,0-0.1,0-0.2s0-0.1,0-0.2l0,0
			c0.1-0.8,0.4-1.6,0.8-2.4c0.5-0.8,1.1-1.5,1.8-2.1c0.8-0.6,1.6-1.1,2.7-1.5C184.2,416.3,185.3,416.1,186.5,416.1L186.5,416.1
			L186.5,416.1L186.5,416.1z M186.8,417c-0.2,0-0.5,0-0.7,0.1c-0.2,0-0.5,0.1-0.7,0.2c0.2,0.1,0.3,0.1,0.5,0.2s0.4,0.2,0.5,0.3
			c0.2,0.1,0.3,0.2,0.4,0.4c0.1,0.1,0.1,0.3,0.1,0.4c-0.3,0.4-0.6,0.8-0.9,1.3c-0.3,0.4-0.6,0.9-0.9,1.4c-0.3,0.5-0.5,1-0.7,1.5
			s-0.4,1-0.6,1.5c0.1,0,0.2,0,0.3,0s0.2,0,0.3,0c0.5,0,1.1-0.1,1.6-0.2s1.1-0.3,1.6-0.5s1-0.5,1.4-0.8s0.8-0.7,1.1-1
			c0.3-0.4,0.5-0.8,0.7-1.2c0.1-0.4,0.2-0.9,0.1-1.3c-0.1-0.2-0.1-0.4-0.3-0.6c-0.1-0.2-0.4-0.5-0.7-0.7s-0.7-0.4-1.2-0.5
			C188.2,417.1,187.6,417,186.8,417z"/>
		<path class="st5" d="M198.3,424.9c-0.2,0.2-0.4,0.5-0.6,0.7c-0.2,0.3-0.5,0.5-0.8,0.7s-0.6,0.4-1,0.5s-0.7,0.2-1.1,0.2
			c-0.2,0-0.5,0-0.7-0.1s-0.4-0.2-0.5-0.3c-0.1-0.1-0.3-0.2-0.4-0.4c-0.1-0.1-0.2-0.3-0.2-0.5s0-0.5,0-0.7s0.1-0.4,0.2-0.6
			c0.1-0.2,0.2-0.4,0.3-0.5c0.1-0.2,0.3-0.4,0.4-0.5l0.2-0.3l0,0l0.3-0.4c0.1-0.1,0.1-0.1,0.2-0.2c0.1-0.1,0.3-0.1,0.5-0.2
			c-0.1,0-0.2,0-0.3,0s-0.2,0-0.2,0c-0.1,0-0.2,0-0.4,0.1c-0.1,0-0.3,0-0.5,0h-0.1c-0.2,0.2-0.3,0.5-0.5,0.7
			c-0.1,0.2-0.3,0.4-0.4,0.6l0,0c0,0-0.1,0.1-0.2,0c-0.1,0-0.2-0.1-0.3-0.1c-0.1-0.1-0.2-0.1-0.3-0.2s-0.1-0.1-0.1-0.2l0,0l0.7-1.2
			c-0.1-0.1-0.2-0.3-0.3-0.4c-0.1-0.2,0-0.4,0.1-0.6s0.2-0.4,0.3-0.6c0.1-0.1,0.1-0.2,0.2-0.3c0.1-0.1,0.1-0.2,0.1-0.4
			c0.2,0.1,0.3,0.1,0.5,0.2s0.3,0.1,0.5,0.2c0.1,0.1,0.3,0.2,0.4,0.3c0.1,0.1,0.2,0.2,0.2,0.4c0,0.1,0,0.1,0,0.2s0,0.2-0.1,0.3
			l-0.4,0.5c0,0,0,0.1,0.1,0c0.1,0,0.2-0.1,0.4-0.2s0.3-0.2,0.5-0.3c0.2-0.1,0.4-0.2,0.6-0.3c0.2-0.1,0.3-0.2,0.5-0.3
			c0.1-0.1,0.2-0.2,0.3-0.2s0.1,0,0.3,0.1c0.1,0,0.2,0.1,0.3,0.1c0.1,0.1,0.2,0.1,0.3,0.1s0.1,0.1,0.2,0.1c0.1,0.1,0.2,0.3,0.2,0.4
			c0,0.2,0,0.4-0.1,0.5s-0.2,0.4-0.4,0.6s-0.3,0.4-0.5,0.7c-0.1,0.1-0.2,0.2-0.3,0.4c-0.1,0.1-0.2,0.3-0.3,0.4s-0.2,0.2-0.3,0.3
			c-0.1,0.1-0.2,0.3-0.3,0.4s-0.1,0.3-0.2,0.4c0,0.1-0.1,0.2,0,0.3c0,0,0.1,0.1,0.2,0.1c0.1,0,0.2,0,0.4-0.1s0.3-0.1,0.5-0.3
			c0.2-0.1,0.3-0.2,0.5-0.4c0.2-0.1,0.3-0.3,0.4-0.5l0,0c0.2-0.2,0.3-0.4,0.4-0.7c0.1-0.2,0.2-0.4,0.3-0.6c0,0,0.1,0,0.2,0
			c0.1,0,0.2,0.1,0.3,0.1c0.1,0.1,0.2,0.1,0.3,0.2s0.1,0.1,0.1,0.2l0,0l-0.3,0.5L198.3,424.9L198.3,424.9z"/>
		<path class="st5" d="M201.9,420.7c0.4,0.1,0.8,0.2,1.1,0.4c0.3,0.2,0.5,0.5,0.7,0.7c0.3,0.2,0.5,0.5,0.7,0.8c0,0.1,0,0.1,0.1,0.2
			c0,0.1,0,0.1,0.1,0.2c0.1,0.3,0.1,0.6,0,0.9c0,0.3-0.1,0.6-0.3,0.9c-0.1,0.3-0.3,0.6-0.5,0.8c-0.2,0.3-0.4,0.5-0.7,0.7
			s-0.6,0.3-0.9,0.5c-0.3,0.1-0.7,0.2-1,0.2c-0.7,0-1.3-0.2-1.8-0.5c-0.6-0.3-1-0.8-1.3-1.4c-0.1-0.2-0.1-0.3-0.2-0.5
			c-0.1-0.3-0.1-0.6,0-0.9s0.2-0.6,0.3-0.9c0.2-0.3,0.4-0.6,0.6-0.9c0.3-0.3,0.6-0.5,0.9-0.7c0.3-0.2,0.7-0.3,1.1-0.4
			S201.5,420.6,201.9,420.7z M202.2,423.5c-0.1,0-0.2-0.1-0.2-0.1c-0.1-0.1-0.1-0.2-0.2-0.3c0-0.1-0.1-0.2-0.1-0.3
			c0-0.1,0-0.2-0.1-0.3c0-0.1,0-0.2,0.1-0.3c0.1-0.1,0.1-0.2,0.2-0.2c0.1-0.1,0.2-0.1,0.2-0.2c0.1,0,0.2-0.1,0.2-0.1s-0.1,0-0.2,0
			c-0.2,0-0.4,0.1-0.7,0.2c-0.2,0.1-0.5,0.2-0.7,0.4c-0.2,0.2-0.3,0.4-0.5,0.6c-0.1,0.2-0.2,0.4-0.3,0.7c-0.1,0.2-0.1,0.5-0.1,0.7
			s0,0.4,0,0.6c0.1,0.3,0.2,0.5,0.4,0.7s0.5,0.3,0.8,0.3c0.4,0,0.7-0.1,1-0.3c0.3-0.2,0.6-0.5,0.8-0.8s0.3-0.7,0.4-1
			c0.1-0.4,0.1-0.7,0-1v-0.1c-0.1,0-0.2,0-0.2,0.1c-0.1,0-0.2,0.1-0.2,0.2c-0.1,0.1-0.1,0.1-0.2,0.2c0,0.1-0.1,0.1-0.1,0.2
			L202.2,423.5z"/>
		<path class="st5" d="M211.6,424.6c-0.1,0.2-0.1,0.4-0.1,0.6s0,0.4,0,0.5s0,0.1,0,0.1h0.2c0.3-0.1,0.5-0.2,0.7-0.4
			c0.2-0.2,0.4-0.3,0.6-0.6c0.2-0.2,0.3-0.4,0.5-0.7c0.1-0.2,0.3-0.5,0.4-0.7c0.1-0.1,0.1-0.2,0.2-0.3c0,0,0.1,0,0.2,0
			c0.1,0,0.2,0.1,0.4,0.1c0.1,0.1,0.2,0.1,0.3,0.2s0.1,0.1,0.1,0.2l-0.2,0.4l0,0c-0.2,0.4-0.5,0.8-0.8,1.2c-0.3,0.4-0.6,0.8-1.1,1.1
			c-0.1,0.1-0.2,0.1-0.3,0.2s-0.2,0.1-0.4,0.2c-0.1,0.1-0.3,0.1-0.5,0.1s-0.4,0.1-0.6,0c-0.5,0-0.9-0.1-1.2-0.4
			c-0.3-0.2-0.5-0.5-0.6-0.8c-0.3,0.3-0.6,0.5-1,0.8c-0.4,0.2-0.8,0.3-1.2,0.3s-0.7-0.1-1-0.2s-0.5-0.3-0.7-0.4
			c-0.2-0.2-0.3-0.4-0.4-0.5c-0.1-0.2-0.2-0.4-0.2-0.5c0-0.2,0-0.3,0-0.4c0-0.3,0-0.5,0.1-0.9c0.1-0.3,0.2-0.6,0.4-0.9
			s0.4-0.6,0.7-0.9s0.6-0.5,0.9-0.8c0.3-0.2,0.7-0.4,1.1-0.5c0.4-0.1,0.8-0.2,1.3-0.2c0.1,0,0.3,0,0.4,0c0.1,0,0.3,0,0.4,0.1
			c0.3,0.1,0.6,0.2,0.8,0.4l0.1-0.1l0.3-0.6c0.1-0.3,0.2-0.5,0.4-0.8c0.1-0.3,0.2-0.6,0.3-0.8c0.1-0.3,0.1-0.5,0.2-0.8
			c0.1-0.3,0.1-0.5,0.1-0.7c0.1-0.1,0.3-0.1,0.6,0c0.2,0.1,0.5,0.2,0.7,0.3c0.2,0.1,0.4,0.3,0.6,0.4c0.2,0.2,0.2,0.3,0.2,0.5
			c0,0.1-0.1,0.2-0.1,0.4c-0.1,0.2-0.2,0.4-0.3,0.7c-0.1,0.2-0.2,0.5-0.3,0.8s-0.2,0.5-0.4,0.8l-0.3,0.6l0,0
			c-0.2,0.4-0.4,0.9-0.6,1.4C211.9,423.5,211.7,424,211.6,424.6L211.6,424.6L211.6,424.6z M207.8,425.7c0.1,0,0.3-0.1,0.5-0.2
			s0.3-0.3,0.5-0.5s0.3-0.4,0.5-0.6s0.3-0.4,0.4-0.5l0.1-0.4c0.1-0.2,0.1-0.5,0.2-0.7c0.1-0.2,0.2-0.5,0.3-0.7
			c-0.1-0.1-0.1-0.2-0.2-0.3c-0.1-0.1-0.3-0.1-0.4-0.1c-0.4,0-0.7,0.1-1,0.3c-0.3,0.2-0.6,0.4-0.8,0.7c-0.2,0.3-0.4,0.6-0.5,1
			c-0.1,0.3-0.2,0.6-0.3,0.9c0,0.1,0,0.2,0,0.3c0,0.1,0,0.2,0.1,0.3c0,0.2,0.1,0.3,0.2,0.4C207.3,425.7,207.5,425.7,207.8,425.7z"/>
		<path class="st5" d="M218.6,420.7c0.1,0,0.3,0,0.6,0c0.2,0.1,0.5,0.2,0.7,0.3c0.2,0.1,0.4,0.3,0.6,0.5s0.2,0.3,0.2,0.5
			c0,0.1-0.1,0.1-0.1,0.3c0,0.1-0.1,0.2-0.1,0.4l0,0c-0.1,0.2-0.2,0.5-0.3,0.8s-0.2,0.6-0.3,0.9s-0.2,0.6-0.2,0.8
			c0,0.2-0.1,0.5,0,0.6c0,0.1,0,0.1,0,0.1h0.2c0.3-0.1,0.5-0.2,0.7-0.4c0.2-0.2,0.4-0.3,0.6-0.6c0.2-0.2,0.3-0.4,0.5-0.7
			c0.1-0.2,0.3-0.5,0.4-0.7l0.2-0.3c0.1-0.1,0.2-0.1,0.3-0.1s0.2,0,0.4,0.1c0.1,0.1,0.2,0.1,0.3,0.2s0.1,0.2,0,0.3l-0.2,0.4
			c-0.2,0.4-0.5,0.8-0.8,1.2c-0.3,0.4-0.6,0.8-1,1.1c-0.1,0.1-0.2,0.1-0.3,0.2s-0.2,0.1-0.4,0.2c-0.1,0.1-0.3,0.1-0.5,0.1
			s-0.4,0.1-0.6,0.1c-0.5,0-0.8-0.1-1.1-0.4c-0.3-0.2-0.4-0.6-0.5-0.9l0,0c-0.1,0.1-0.2,0.3-0.3,0.4s-0.3,0.2-0.4,0.3
			c-0.1,0.1-0.2,0.1-0.3,0.2s-0.2,0.1-0.4,0.2c-0.1,0.1-0.3,0.1-0.5,0.1s-0.4,0.1-0.6,0.1c-0.4,0-0.8-0.1-1.1-0.4
			c-0.3-0.2-0.4-0.5-0.5-0.9c0-0.1,0-0.2,0-0.3c0-0.1,0-0.2,0-0.3c0-0.3,0.1-0.7,0.2-1.2c0.1-0.5,0.2-0.9,0.3-1.3s0.2-0.7,0.2-1
			c0.1-0.3,0.1-0.6,0.1-0.8l0.1-0.1c0.1-0.1,0.3,0,0.5,0c0.2,0.1,0.5,0.2,0.7,0.3c0.2,0.1,0.4,0.3,0.6,0.5c0.2,0.2,0.2,0.3,0.2,0.5
			c0,0.1-0.1,0.2-0.1,0.3c0,0.1-0.1,0.3-0.2,0.4l0,0c-0.1,0.2-0.2,0.5-0.3,0.8s-0.2,0.6-0.3,0.9s-0.1,0.5-0.2,0.8c0,0.2,0,0.4,0,0.6
			c0,0.1,0,0.1,0,0.1h0.1c0.3-0.1,0.5-0.2,0.7-0.3c0.2-0.2,0.4-0.3,0.6-0.5c0.2-0.2,0.3-0.4,0.5-0.6c0.1-0.2,0.3-0.5,0.4-0.7l0,0
			c0,0,0-0.1,0.1-0.1c0,0,0-0.1,0.1-0.1l0.2-0.6c0.1-0.4,0.2-0.7,0.3-1.1c0.1-0.3,0.1-0.6,0.1-0.8L218.6,420.7z"/>
		<path class="st5" d="M229,424.1c-0.2,0.3-0.4,0.7-0.7,1.1s-0.6,0.8-1.1,1.1c-0.2,0.2-0.5,0.4-0.8,0.5s-0.5,0.2-0.8,0.2
			c-0.3,0.1-0.5,0.1-0.7,0.1s-0.4,0-0.5,0c-0.8,0-1.4-0.2-1.9-0.5s-0.8-0.8-1-1.3c-0.1-0.5-0.1-0.9,0-1.4s0.4-1,0.8-1.5
			c0.1-0.2,0.3-0.4,0.6-0.6c0.2-0.2,0.5-0.4,0.8-0.6s0.7-0.3,1-0.4c0.4-0.1,0.8-0.2,1.2-0.1c0.4,0,0.8,0.1,1.1,0.3
			c0.3,0.2,0.5,0.4,0.5,0.7c0,0.1,0,0.3,0,0.4s-0.1,0.3-0.2,0.4c-0.1,0.1-0.2,0.1-0.3,0.2c-0.1,0-0.2,0-0.3,0s-0.2-0.1-0.3-0.2
			s-0.1-0.2-0.1-0.3c0.1-0.1,0.1-0.2,0-0.3c0,0,0-0.1-0.1-0.1c0,0-0.1,0-0.2,0c-0.4,0.1-0.7,0.2-1,0.4c-0.3,0.2-0.5,0.5-0.8,0.8
			s-0.4,0.6-0.5,0.9s-0.2,0.6-0.2,0.8c0,0.1,0,0.1,0,0.2s0,0.1,0,0.2s0.1,0.2,0.1,0.3c0.1,0.1,0.1,0.2,0.2,0.3
			c0.1,0.1,0.2,0.2,0.3,0.2c0.1,0.1,0.2,0.1,0.4,0.1l0,0c0.2,0,0.4,0,0.7,0c0.2-0.1,0.5-0.2,0.8-0.3c0.3-0.1,0.5-0.3,0.8-0.6
			c0.3-0.2,0.5-0.5,0.7-0.8c0.1-0.2,0.2-0.3,0.3-0.5s0.2-0.4,0.3-0.5s0.2-0.1,0.3-0.1s0.3,0,0.4,0.1c0.1,0,0.2,0.1,0.3,0.2
			s0.1,0.2,0,0.3L229,424.1z"/>
		<path class="st5" d="M235.3,424.1c-0.2,0.3-0.4,0.7-0.7,1.1s-0.6,0.8-1,1.1c-0.3,0.2-0.5,0.4-0.8,0.5s-0.5,0.2-0.8,0.2
			c-0.3,0.1-0.5,0.1-0.7,0.1s-0.4,0-0.5,0c-0.8,0-1.4-0.2-1.9-0.5s-0.8-0.8-1-1.3c-0.1-0.5-0.1-0.9,0-1.4s0.4-1,0.8-1.5
			c0.1-0.2,0.3-0.4,0.6-0.6c0.2-0.2,0.5-0.4,0.8-0.6s0.7-0.3,1-0.4c0.4-0.1,0.8-0.2,1.2-0.1c0.4,0,0.8,0.1,1.1,0.3
			c0.3,0.2,0.5,0.4,0.5,0.7c0,0.1,0,0.3,0,0.4s-0.1,0.3-0.2,0.4c-0.1,0.1-0.2,0.1-0.3,0.2c-0.1,0-0.2,0-0.3,0s-0.2-0.1-0.3-0.2
			s-0.1-0.2-0.1-0.3c0.1-0.1,0.1-0.2,0-0.3c0,0,0-0.1-0.1-0.1c0,0-0.1,0-0.2,0c-0.4,0.1-0.7,0.2-1,0.4c-0.3,0.2-0.6,0.5-0.8,0.8
			s-0.4,0.6-0.5,0.9s-0.2,0.6-0.2,0.8c0,0.1,0,0.1,0,0.2s0,0.1,0,0.2s0.1,0.2,0.1,0.3c0.1,0.1,0.1,0.2,0.2,0.3
			c0.1,0.1,0.2,0.2,0.3,0.2c0.1,0.1,0.2,0.1,0.4,0.1l0,0c0.2,0,0.4,0,0.7,0c0.3-0.1,0.5-0.2,0.8-0.3c0.3-0.1,0.5-0.3,0.8-0.6
			c0.3-0.2,0.5-0.5,0.7-0.8c0.1-0.2,0.2-0.3,0.3-0.5s0.2-0.4,0.3-0.5s0.2-0.1,0.3-0.1s0.3,0,0.4,0.1c0.1,0,0.2,0.1,0.3,0.2
			s0.1,0.2,0,0.3L235.3,424.1z"/>
		<path class="st5" d="M235.5,420.7c0.1,0,0.3,0,0.5,0c0.2,0.1,0.5,0.2,0.7,0.3c0.2,0.1,0.4,0.3,0.5,0.5s0.2,0.3,0.1,0.5l0,0
			c0,0,0,0.1-0.1,0.2c0,0.1-0.1,0.1-0.1,0.2s-0.1,0.2-0.1,0.3c-0.1,0.2-0.2,0.4-0.3,0.6s-0.2,0.4-0.3,0.7c-0.1,0.2-0.2,0.5-0.3,0.7
			s-0.2,0.4-0.2,0.6c-0.1,0.2-0.1,0.3-0.1,0.4s0,0.2,0.1,0.2h0.1c0.3-0.1,0.6-0.2,0.8-0.3c0.2-0.2,0.5-0.3,0.7-0.5s0.4-0.4,0.5-0.7
			c0.2-0.2,0.3-0.4,0.5-0.7l0.2-0.3c0,0,0.1,0,0.2,0c0.1,0,0.2,0.1,0.3,0.1c0.1,0.1,0.2,0.1,0.3,0.2s0.1,0.1,0.1,0.2l0,0
			c-0.3,0.5-0.6,0.9-1.1,1.4c-0.4,0.5-0.8,0.9-1.3,1.2c-0.1,0-0.2,0.1-0.3,0.2s-0.2,0.1-0.4,0.2c-0.1,0.1-0.3,0.1-0.5,0.1
			s-0.4,0.1-0.6,0.1c-0.4,0-0.7-0.1-1-0.3c-0.2-0.2-0.4-0.5-0.5-0.8c0-0.1,0-0.2,0-0.3c0-0.1,0-0.2,0-0.4l0,0
			c0.1-0.4,0.2-0.8,0.3-1.2c0.2-0.5,0.3-0.9,0.5-1.4c0.1-0.3,0.2-0.6,0.3-0.9s0.2-0.6,0.3-0.8L235.5,420.7z M236.3,417.5
			c0.1,0,0.2,0,0.3,0.1c0.1,0,0.3,0.1,0.4,0.2c0.1,0.1,0.3,0.2,0.4,0.3c0.1,0.1,0.3,0.2,0.4,0.3c0.1,0.1,0.2,0.2,0.3,0.3
			c0.1,0.1,0.1,0.1,0.1,0.2c0,0.2,0,0.4-0.1,0.5c-0.1,0.2-0.1,0.3-0.2,0.5c-0.1,0.2-0.1,0.3-0.2,0.5c-0.1,0.2-0.1,0.4-0.1,0.6
			c-0.1,0-0.3-0.1-0.5-0.2s-0.3-0.2-0.5-0.3c-0.2-0.1-0.3-0.2-0.4-0.3c-0.1-0.1-0.2-0.2-0.2-0.3c0-0.1,0-0.3,0-0.5s0-0.3,0-0.5
			s0.1-0.4,0.1-0.6s0-0.4,0-0.5L236.3,417.5z"/>
		<path class="st5" d="M242.5,420.7c0.4,0.1,0.8,0.2,1.1,0.4c0.3,0.2,0.5,0.5,0.7,0.7c0.3,0.2,0.5,0.5,0.7,0.8c0,0.1,0,0.1,0.1,0.2
			c0,0.1,0,0.1,0.1,0.2c0.1,0.3,0.1,0.6,0,0.9c0,0.3-0.1,0.6-0.3,0.9c-0.1,0.3-0.3,0.6-0.5,0.8c-0.2,0.3-0.4,0.5-0.7,0.7
			s-0.6,0.3-0.9,0.5c-0.3,0.1-0.7,0.2-1,0.2c-0.7,0-1.3-0.2-1.8-0.5c-0.6-0.3-1-0.8-1.3-1.4c-0.1-0.2-0.1-0.3-0.2-0.5
			c-0.1-0.3-0.1-0.6,0-0.9s0.2-0.6,0.3-0.9c0.2-0.3,0.4-0.6,0.6-0.9c0.3-0.3,0.6-0.5,0.9-0.7c0.3-0.2,0.7-0.3,1.1-0.4
			C241.6,420.7,242.1,420.6,242.5,420.7z M242.7,423.5c-0.1,0-0.2-0.1-0.2-0.1c-0.1-0.1-0.1-0.2-0.2-0.3c0-0.1-0.1-0.2-0.1-0.3
			c0-0.1,0-0.2-0.1-0.3c0-0.1,0-0.2,0.1-0.3c0.1-0.1,0.1-0.2,0.2-0.2c0.1-0.1,0.2-0.1,0.2-0.2c0.1,0,0.2-0.1,0.2-0.1s-0.1,0-0.2,0
			c-0.2,0-0.4,0.1-0.7,0.2c-0.2,0.1-0.5,0.2-0.6,0.4c-0.2,0.2-0.3,0.4-0.5,0.6c-0.1,0.2-0.2,0.4-0.3,0.7c-0.1,0.2-0.1,0.5-0.1,0.7
			s0,0.4,0,0.6c0.1,0.3,0.2,0.5,0.4,0.7s0.5,0.3,0.8,0.3c0.4,0,0.7-0.1,1-0.3c0.3-0.2,0.6-0.5,0.8-0.8s0.3-0.7,0.4-1
			c0.1-0.4,0.1-0.7,0-1v-0.1c-0.1,0-0.2,0-0.2,0.1c-0.1,0-0.2,0.1-0.2,0.2c-0.1,0.1-0.1,0.1-0.2,0.2c0,0.1-0.1,0.1-0.1,0.2
			L242.7,423.5z M243.1,418c0,0,0.1,0,0.2,0c0.1,0,0.2,0.1,0.2,0.2c0.1,0.1,0.2,0.2,0.3,0.3c0.1,0.1,0.2,0.2,0.2,0.3
			c0.1,0.1,0.1,0.2,0.2,0.3c0,0.1,0,0.1,0,0.2c-0.3,0.2-0.6,0.4-0.9,0.5c-0.3,0.1-0.5,0.2-0.8,0.4l-0.5,0.2c-0.1,0-0.2,0.1-0.3,0.1
			s-0.2,0-0.3-0.1c-0.1,0-0.1-0.1-0.2-0.2c0-0.1,0-0.2,0-0.3L243.1,418z"/>
		<path class="st5" d="M253.9,424.7c-0.1,0.2-0.3,0.4-0.5,0.7c-0.2,0.3-0.4,0.5-0.7,0.8c-0.3,0.2-0.5,0.5-0.9,0.6
			c-0.3,0.2-0.6,0.3-1,0.3c-0.2,0-0.4,0-0.6-0.1c-0.2-0.1-0.4-0.1-0.6-0.2c-0.2-0.1-0.3-0.3-0.5-0.4c-0.1-0.2-0.2-0.4-0.3-0.6
			c0-0.2,0-0.4,0-0.6s0-0.4,0.1-0.6c0-0.2,0.1-0.5,0.2-0.7c0.1-0.3,0.2-0.6,0.3-0.9c0.1-0.1,0.1-0.3,0.1-0.4s0-0.2,0-0.3l-0.5,0.4
			c-0.3,0.2-0.6,0.5-0.8,0.7s-0.5,0.5-0.7,0.8c-0.1,0.4-0.2,0.9-0.3,1.3c-0.1,0.5-0.1,0.9,0,1.4c0,0.1-0.1,0.1-0.3,0.1
			s-0.4,0-0.6-0.1c-0.2-0.1-0.4-0.1-0.6-0.2c-0.2-0.1-0.3-0.2-0.3-0.3c-0.1-0.3-0.1-0.6-0.1-0.9s0-0.6,0.1-0.9
			c0-0.3,0.1-0.6,0.2-0.9c0.1-0.3,0.1-0.6,0.2-0.9c0.1-0.3,0.2-0.7,0.2-1c0.1-0.3,0.1-0.6,0.2-0.9c0.1,0,0.2,0,0.4,0
			s0.4,0.1,0.6,0.2c0.2,0.1,0.4,0.2,0.6,0.3c0.2,0.1,0.3,0.2,0.4,0.4c0.3-0.3,0.7-0.5,1-0.6c0.4-0.2,0.8-0.3,1.2-0.3
			c0.1,0,0.3,0,0.5,0.1s0.4,0.2,0.5,0.3c0.2,0.1,0.3,0.3,0.4,0.4c0.1,0.1,0.1,0.3,0.1,0.4c-0.1,0.4-0.2,0.7-0.3,1s-0.2,0.6-0.3,0.8
			c-0.1,0.2-0.1,0.4-0.2,0.5c-0.1,0.2-0.1,0.3-0.1,0.5s-0.1,0.3-0.1,0.5s0,0.4,0,0.5c0,0,0,0,0.1-0.1l0,0c0.3-0.1,0.5-0.3,0.9-0.5
			c0.3-0.3,0.6-0.6,0.9-1c0.1-0.1,0.2-0.2,0.2-0.3c0.1-0.1,0.1-0.2,0.2-0.3l0.2-0.3c0,0,0.1,0,0.2,0c0.1,0,0.2,0.1,0.4,0.1
			c0.1,0.1,0.2,0.1,0.3,0.2s0.1,0.1,0.1,0.2l0,0L253.9,424.7L253.9,424.7L253.9,424.7z"/>
		<path class="st5" d="M269.5,419.9c-0.1,0.1-0.2,0.1-0.4,0.1c-0.1,0-0.3,0-0.4,0c-0.2,0-0.4,0-0.7-0.1c-0.2-0.1-0.4-0.2-0.5-0.3
			s-0.3-0.2-0.4-0.3c-0.1-0.1-0.1-0.2-0.1-0.2c0.2-0.1,0.4-0.2,0.6-0.3c0.2-0.1,0.4-0.3,0.6-0.5s0.3-0.4,0.4-0.5
			c0.1-0.2,0.1-0.3,0.1-0.5c0-0.1-0.1-0.1-0.2-0.2s-0.3-0.1-0.5-0.1c-0.1,0-0.2,0-0.3,0c-0.1,0-0.2,0-0.3,0c-0.4,0-0.7,0-1.1,0.1
			s-0.8,0.1-1.2,0.2c-0.4,0.1-0.8,0.2-1.1,0.4c-0.4,0.1-0.7,0.3-0.9,0.5s-0.4,0.4-0.5,0.7c-0.1,0.2-0.1,0.5,0,0.8
			c0.1,0.2,0.2,0.4,0.3,0.6c0.2,0.2,0.3,0.4,0.5,0.5c0.2,0.2,0.4,0.4,0.7,0.5c0.2,0.2,0.5,0.3,0.7,0.5c0.3,0.2,0.6,0.4,0.9,0.7
			c0.3,0.2,0.6,0.5,0.8,0.7c0.2,0.2,0.4,0.5,0.6,0.8s0.3,0.5,0.3,0.8c0,0.4-0.1,0.9-0.4,1.3s-0.7,0.8-1.2,1.2
			c-0.5,0.4-1.1,0.6-1.9,0.9c-0.7,0.2-1.5,0.3-2.3,0.3c-0.5,0-1-0.1-1.5-0.2c-0.6-0.1-1.1-0.3-1.6-0.5s-0.9-0.5-1.3-0.8
			s-0.6-0.7-0.7-1.1c-0.1-0.5-0.1-0.9,0.1-1.3s0.6-0.8,1.3-1.2l0,0c0.1,0,0.2,0,0.5,0c0.3,0.1,0.5,0.2,0.8,0.3
			c0.3,0.1,0.5,0.2,0.8,0.4c0.2,0.1,0.3,0.2,0.3,0.3l-0.4,0.2c-0.2,0.1-0.4,0.2-0.6,0.3c-0.2,0.1-0.4,0.2-0.5,0.3
			c-0.1,0.1-0.2,0.2-0.3,0.4c-0.1,0.1-0.1,0.3,0,0.5c0.1,0.3,0.2,0.5,0.4,0.7c0.2,0.2,0.5,0.3,0.8,0.4s0.6,0.2,0.9,0.2
			s0.7,0.1,1,0.1c0.6,0,1.1-0.1,1.5-0.2c0.5-0.1,0.8-0.3,1.1-0.5c0.3-0.2,0.5-0.5,0.6-0.8s0.1-0.6,0.1-1c0-0.2-0.1-0.4-0.3-0.6
			c-0.1-0.2-0.3-0.4-0.5-0.5c-0.2-0.2-0.4-0.3-0.7-0.5c-0.2-0.2-0.5-0.3-0.7-0.5c-0.3-0.2-0.6-0.4-0.9-0.6s-0.5-0.4-0.8-0.6
			c-0.2-0.2-0.4-0.4-0.6-0.7c-0.2-0.2-0.2-0.5-0.3-0.7c0-0.4,0-0.8,0.2-1.1c0.2-0.4,0.5-0.7,0.8-1c0.4-0.3,0.8-0.6,1.3-0.9
			s1-0.5,1.6-0.6c0.6-0.2,1.2-0.3,1.8-0.4c0.6-0.1,1.2-0.1,1.8-0.1c0.4,0,0.7,0.1,1,0.2s0.5,0.2,0.7,0.3c0.2,0.1,0.3,0.3,0.4,0.5
			s0.2,0.4,0.2,0.6s0.1,0.4,0,0.7c0,0.2-0.1,0.5-0.2,0.7s-0.2,0.4-0.3,0.6C269.8,419.6,269.7,419.7,269.5,419.9L269.5,419.9z"/>
		<path class="st5" d="M272.9,420.7c0.4,0.1,0.8,0.2,1.1,0.4c0.3,0.2,0.5,0.5,0.7,0.7c0.3,0.2,0.5,0.5,0.6,0.8c0,0.1,0,0.1,0.1,0.2
			c0,0.1,0,0.1,0.1,0.2c0.1,0.3,0.1,0.6,0,0.9c0,0.3-0.1,0.6-0.3,0.9c-0.1,0.3-0.3,0.6-0.5,0.8c-0.2,0.3-0.4,0.5-0.7,0.7
			c-0.3,0.2-0.6,0.3-0.9,0.5c-0.3,0.1-0.7,0.2-1,0.2c-0.7,0-1.3-0.2-1.8-0.5c-0.6-0.3-1-0.8-1.3-1.4c-0.1-0.2-0.1-0.3-0.2-0.5
			c-0.1-0.3-0.1-0.6,0-0.9s0.2-0.6,0.3-0.9c0.2-0.3,0.4-0.6,0.6-0.9c0.3-0.3,0.6-0.5,0.9-0.7s0.7-0.3,1.1-0.4
			C272.1,420.7,272.5,420.6,272.9,420.7z M273.2,423.5c-0.1,0-0.2-0.1-0.2-0.1c-0.1-0.1-0.1-0.2-0.2-0.3c0-0.1-0.1-0.2-0.1-0.3
			c0-0.1,0-0.2-0.1-0.3c0-0.1,0-0.2,0.1-0.3c0.1-0.1,0.1-0.2,0.2-0.2c0.1-0.1,0.2-0.1,0.2-0.2c0.1,0,0.2-0.1,0.2-0.1s-0.1,0-0.2,0
			c-0.2,0-0.4,0.1-0.7,0.2c-0.2,0.1-0.5,0.2-0.7,0.4c-0.2,0.2-0.3,0.4-0.5,0.6c-0.1,0.2-0.2,0.4-0.3,0.7c-0.1,0.2-0.1,0.5-0.1,0.7
			s0,0.4,0,0.6c0.1,0.3,0.2,0.5,0.4,0.7c0.2,0.2,0.5,0.3,0.8,0.3c0.4,0,0.7-0.1,1-0.3c0.3-0.2,0.6-0.5,0.8-0.8
			c0.2-0.3,0.3-0.7,0.4-1c0.1-0.4,0.1-0.7,0-1v-0.1c-0.1,0-0.2,0-0.2,0.1c-0.1,0-0.2,0.1-0.2,0.2c-0.1,0.1-0.1,0.1-0.2,0.2
			c0,0.1-0.1,0.1-0.1,0.2L273.2,423.5z"/>
		<path class="st5" d="M275.1,425.4c-0.1-0.3,0-0.6,0.1-0.9s0.3-0.5,0.6-0.7l0.2-0.4c0.2-0.3,0.4-0.7,0.6-1s0.4-0.6,0.7-1l0.2-0.3
			c0.1-0.2,0.3-0.4,0.5-0.6s0.4-0.5,0.8-0.8c0.2,0.1,0.4,0.1,0.6,0.2s0.5,0.2,0.7,0.3c0.2,0.1,0.3,0.3,0.4,0.4s0,0.3-0.1,0.4l0,0
			c-0.1,0.1-0.2,0.2-0.3,0.3c-0.1,0.1-0.1,0.1-0.2,0.2l-0.1,0.2c-0.1,0.2-0.2,0.5-0.2,0.8s0,0.5,0.1,0.8c0,0.1,0.1,0.3,0.1,0.4
			c0.1,0.2,0.1,0.3,0.2,0.5l0.2,0.6c0.1,0.3,0.1,0.6,0,0.9s-0.2,0.5-0.4,0.7c-0.2,0.2-0.5,0.3-0.8,0.4s-0.7,0.1-1.1,0.1
			s-0.8-0.1-1.1-0.2c-0.3-0.1-0.6-0.2-0.8-0.4c-0.2-0.1-0.4-0.3-0.5-0.5C275.2,425.9,275.2,425.7,275.1,425.4z M277.6,423.5
			c0-0.1,0-0.1,0-0.2s0-0.1,0-0.2l-0.4,0.6l0,0c0.1,0.1,0.1,0.2,0.2,0.3c0.1,0.1,0.2,0.3,0.2,0.4s0.1,0.3,0.1,0.4s0,0.2-0.1,0.3
			c-0.1-0.1-0.2-0.2-0.4-0.2c-0.1,0-0.3,0-0.4,0s-0.2,0.1-0.3,0.2c-0.1,0.1-0.1,0.2-0.1,0.3c0,0,0,0.1,0.1,0.1
			c0,0.1,0.1,0.1,0.1,0.2c0.1,0.1,0.3,0.2,0.4,0.2c0.2,0.1,0.3,0.1,0.5,0.1s0.3,0,0.4,0c0.1-0.1,0.2-0.1,0.2-0.2
			c0.1-0.1,0.1-0.2,0.1-0.3c0-0.1,0-0.2,0-0.4c0-0.1-0.1-0.3-0.1-0.4c-0.1-0.1-0.1-0.3-0.2-0.4s-0.1-0.3-0.2-0.5
			C277.7,423.8,277.6,423.7,277.6,423.5z"/>
		<path class="st5" d="M280.9,421.2c-0.2,0-0.3,0-0.5,0c-0.1,0-0.2-0.1-0.3-0.2c-0.1-0.1-0.1-0.2-0.1-0.3c0-0.1,0.1-0.2,0.2-0.3
			c0.6-0.4,1.3-0.6,2-0.9c0.2-0.5,0.3-0.9,0.4-1.3s0.2-0.8,0.2-1.1c0.1-0.1,0.3-0.1,0.6,0c0.3,0.1,0.5,0.2,0.7,0.3
			c0.2,0.1,0.4,0.3,0.6,0.4c0.2,0.2,0.2,0.3,0.2,0.5c0,0.1,0,0.1-0.1,0.2c0,0.1-0.1,0.2-0.1,0.3c0.6-0.1,1.3-0.1,1.9-0.1
			c0.1,0,0.2,0,0.4,0c0.2,0,0.3,0,0.4,0c0.1,0.1,0.1,0.2,0.1,0.3c0,0.1,0,0.2-0.1,0.3c0,0.1-0.1,0.2-0.2,0.3
			c-0.1,0.1-0.2,0.1-0.3,0.1c-0.1,0-0.2,0-0.3,0c-0.1,0-0.2,0-0.3,0c-0.4,0-0.7,0-1,0s-0.7,0.1-1,0.1l-0.4,1l-0.1,0.1
			c-0.1,0.1-0.1,0.3-0.2,0.5s-0.2,0.5-0.3,0.8c-0.1,0.3-0.2,0.6-0.4,0.9c-0.1,0.3-0.2,0.6-0.3,0.9c-0.1,0.3-0.1,0.6-0.2,0.8
			c0,0.2,0,0.4,0,0.6v0.1h0.1c0.3-0.1,0.5-0.2,0.7-0.3c0.2-0.2,0.4-0.3,0.6-0.5s0.3-0.4,0.5-0.6c0.1-0.2,0.3-0.5,0.4-0.7l0,0
			c0-0.1,0.1-0.1,0.1-0.2s0.1-0.1,0.1-0.2c0,0,0.1-0.1,0.2,0c0.1,0,0.2,0.1,0.3,0.1c0.1,0,0.2,0.1,0.3,0.2c0.1,0.1,0.1,0.1,0.1,0.2
			l-0.3,0.5c-0.2,0.4-0.5,0.8-0.8,1.2c-0.3,0.4-0.6,0.8-1,1.1c-0.1,0.1-0.2,0.1-0.3,0.2c-0.1,0.1-0.2,0.1-0.4,0.2
			c-0.1,0.1-0.3,0.1-0.5,0.1s-0.4,0.1-0.6,0.1c-0.5,0-0.8-0.1-1.1-0.4c-0.3-0.2-0.4-0.6-0.5-0.9c0-0.1,0-0.2,0-0.2
			c0-0.1,0-0.2,0-0.2c0-0.7,0.1-1.4,0.3-2.1c0.2-0.7,0.5-1.4,0.8-2.1l0.1-0.2c-0.1,0.1-0.3,0.1-0.4,0.2
			C281.2,421.1,281.1,421.1,280.9,421.2L280.9,421.2z"/>
		<path class="st5" d="M290.4,422.6c-0.3,0.6-0.8,1.2-1.4,1.6s-1.4,0.7-2.2,0.9c0.1,0.2,0.2,0.4,0.3,0.5c0.1,0.2,0.3,0.3,0.6,0.3
			l0,0c0.2,0,0.4,0,0.7,0c0.2-0.1,0.5-0.2,0.8-0.3c0.3-0.1,0.5-0.3,0.8-0.6c0.3-0.2,0.5-0.5,0.7-0.8c0.1-0.2,0.2-0.3,0.3-0.5
			c0.1-0.2,0.2-0.4,0.3-0.5c0.1-0.1,0.2-0.1,0.3-0.1c0.1,0,0.3,0,0.4,0.1s0.2,0.1,0.3,0.2c0.1,0.1,0.1,0.2,0,0.3l-0.2,0.4
			c-0.2,0.3-0.4,0.7-0.7,1.1c-0.3,0.4-0.6,0.8-1.1,1.1c-0.3,0.2-0.5,0.4-0.8,0.5s-0.5,0.2-0.8,0.2c-0.3,0.1-0.5,0.1-0.7,0.1
			s-0.4,0-0.5,0c-0.8,0-1.4-0.2-1.9-0.5s-0.8-0.8-1-1.3c-0.1-0.5-0.1-0.9,0-1.4s0.4-1,0.8-1.5c0.1-0.2,0.3-0.4,0.6-0.6
			c0.2-0.2,0.5-0.4,0.8-0.6s0.7-0.3,1-0.4c0.4-0.1,0.8-0.2,1.2-0.1c0.4,0,0.8,0.1,1.1,0.3c0.3,0.2,0.5,0.4,0.6,0.8
			c0,0.1,0,0.3,0,0.4C290.6,422.3,290.5,422.5,290.4,422.6L290.4,422.6L290.4,422.6L290.4,422.6z M289.2,421.8
			c-0.3,0-0.6,0.2-0.9,0.3c-0.3,0.2-0.5,0.4-0.7,0.6s-0.4,0.5-0.5,0.8s-0.2,0.5-0.3,0.8c0.6-0.2,1.2-0.5,1.6-0.8
			c0.5-0.3,0.8-0.8,1-1.3l0,0c0-0.1,0-0.1,0.1-0.2c0-0.1,0-0.1,0-0.1C289.4,421.8,289.4,421.7,289.2,421.8z"/>
		<path class="st5" d="M299.4,424.7c-0.1,0.2-0.3,0.4-0.5,0.7c-0.2,0.3-0.4,0.5-0.7,0.8c-0.3,0.2-0.5,0.5-0.9,0.6
			c-0.3,0.2-0.6,0.3-1,0.3c-0.2,0-0.4,0-0.6-0.1s-0.4-0.1-0.6-0.2s-0.3-0.3-0.5-0.4c-0.1-0.2-0.2-0.4-0.2-0.6s0-0.4,0-0.6
			s0-0.4,0.1-0.6c0-0.2,0.1-0.5,0.2-0.7s0.2-0.6,0.3-0.9c0.1-0.1,0.1-0.3,0.1-0.4s0-0.2,0-0.3l-0.5,0.4c-0.3,0.2-0.6,0.5-0.8,0.7
			c-0.2,0.2-0.5,0.5-0.7,0.8c-0.1,0.4-0.2,0.9-0.3,1.3c-0.1,0.5-0.1,0.9,0,1.4c0,0.1-0.1,0.1-0.3,0.1c-0.2,0-0.4,0-0.6-0.1
			s-0.4-0.1-0.6-0.2s-0.3-0.2-0.3-0.3c0-0.3-0.1-0.6-0.1-0.9s0-0.6,0.1-0.9c0-0.3,0.1-0.6,0.2-0.9s0.1-0.6,0.2-0.9s0.2-0.7,0.2-1
			c0.1-0.3,0.1-0.6,0.2-0.9c0.1,0,0.2,0,0.4,0c0.2,0,0.4,0.1,0.6,0.2s0.4,0.2,0.6,0.3c0.2,0.1,0.3,0.2,0.4,0.4
			c0.3-0.3,0.7-0.5,1-0.6c0.4-0.2,0.8-0.3,1.2-0.3c0.1,0,0.3,0,0.5,0.1s0.4,0.2,0.5,0.3c0.2,0.1,0.3,0.3,0.4,0.4s0.1,0.3,0.1,0.4
			c-0.1,0.4-0.2,0.7-0.3,1c-0.1,0.3-0.2,0.6-0.3,0.8c-0.1,0.2-0.1,0.4-0.2,0.5c-0.1,0.2-0.1,0.3-0.1,0.5s-0.1,0.3-0.1,0.5
			s0,0.4,0,0.5c0,0,0,0,0.1-0.1l0,0c0.3-0.1,0.5-0.3,0.9-0.5c0.3-0.3,0.6-0.6,0.9-1c0.1-0.1,0.1-0.2,0.2-0.3
			c0.1-0.1,0.1-0.2,0.2-0.3l0.2-0.3c0,0,0.1,0,0.2,0s0.2,0.1,0.4,0.1c0.1,0.1,0.2,0.1,0.3,0.2c0.1,0.1,0.1,0.1,0.1,0.2l0,0
			L299.4,424.7L299.4,424.7L299.4,424.7z"/>
		<path class="st5" d="M299.9,420.7c0.1,0,0.3,0,0.5,0c0.2,0.1,0.5,0.2,0.7,0.3c0.2,0.1,0.4,0.3,0.5,0.5s0.2,0.3,0.1,0.5l0,0
			c0,0-0.1,0.1-0.1,0.2s-0.1,0.1-0.1,0.2s-0.1,0.2-0.1,0.3c-0.1,0.2-0.2,0.4-0.3,0.6c-0.1,0.2-0.2,0.4-0.3,0.7
			c-0.1,0.2-0.2,0.5-0.3,0.7c-0.1,0.2-0.2,0.4-0.2,0.6c-0.1,0.2-0.1,0.3-0.1,0.4s0,0.2,0.1,0.2h0.1c0.3-0.1,0.6-0.2,0.8-0.3
			c0.2-0.2,0.5-0.3,0.7-0.5s0.4-0.4,0.5-0.7c0.2-0.2,0.3-0.4,0.5-0.7l0.2-0.3c0,0,0.1,0,0.2,0s0.2,0.1,0.3,0.1
			c0.1,0.1,0.2,0.1,0.3,0.2c0.1,0.1,0.1,0.1,0.1,0.2l0,0c-0.3,0.5-0.6,0.9-1.1,1.4c-0.4,0.5-0.8,0.9-1.3,1.2c-0.1,0-0.2,0.1-0.3,0.2
			c-0.1,0.1-0.2,0.1-0.4,0.2c-0.1,0.1-0.3,0.1-0.5,0.1s-0.4,0.1-0.6,0.1c-0.4,0-0.7-0.1-1-0.3c-0.2-0.2-0.4-0.5-0.5-0.8
			c0-0.1,0-0.2,0-0.3c0-0.1,0-0.2,0-0.4l0,0c0.1-0.4,0.2-0.8,0.3-1.2c0.2-0.5,0.3-0.9,0.5-1.4c0.1-0.3,0.2-0.6,0.3-0.9
			c0.1-0.3,0.2-0.6,0.3-0.8L299.9,420.7z M300.7,417.5c0.1,0,0.2,0,0.3,0.1c0.1,0,0.3,0.1,0.4,0.2s0.3,0.2,0.4,0.3
			c0.1,0.1,0.3,0.2,0.4,0.3c0.1,0.1,0.2,0.2,0.3,0.3c0.1,0.1,0.1,0.1,0.1,0.2c0,0.2,0,0.4-0.1,0.5c-0.1,0.2-0.1,0.3-0.2,0.5
			s-0.1,0.3-0.2,0.5s-0.1,0.4-0.1,0.6c-0.1,0-0.3-0.1-0.5-0.2s-0.3-0.2-0.5-0.3c-0.2-0.1-0.3-0.2-0.4-0.3c-0.1-0.1-0.2-0.2-0.2-0.3
			c0-0.1,0-0.3,0-0.5s0-0.3,0-0.5s0-0.4,0.1-0.6c0-0.2,0-0.4,0-0.5L300.7,417.5z"/>
		<path class="st5" d="M306,421.3c0.3-0.2,0.7-0.3,1.1-0.4s0.8-0.1,1.1-0.1c0.3,0,0.6,0.1,0.9,0.2c0.2,0.1,0.4,0.2,0.6,0.4
			c0.2,0.1,0.3,0.3,0.4,0.5s0.2,0.4,0.2,0.6s0.1,0.3,0.1,0.5s0,0.3,0,0.5c-0.1,0.4-0.2,0.9-0.5,1.3c-0.2,0.4-0.5,0.8-0.9,1.1
			c-0.4,0.3-0.8,0.6-1.3,0.8c-0.5,0.2-1,0.4-1.5,0.4c-0.4,0-0.7-0.1-1-0.1c-0.3-0.1-0.5-0.2-0.7-0.3v0.1v0.1c0,0.1-0.1,0.1-0.3,0.1
			c-0.2,0-0.4,0-0.6-0.1s-0.4-0.1-0.6-0.2s-0.3-0.2-0.3-0.3c-0.1-0.4-0.1-0.9,0-1.3c0-0.4,0.1-0.9,0.2-1.3s0.3-0.9,0.4-1.3
			c0.2-0.4,0.3-0.9,0.5-1.3l0.3-0.7c0.1-0.3,0.2-0.5,0.3-0.8c0.1-0.3,0.2-0.5,0.3-0.8c0.1-0.3,0.2-0.5,0.2-0.8
			c0.1-0.3,0.1-0.5,0.1-0.7c0.1-0.1,0.3-0.1,0.6,0c0.2,0.1,0.5,0.2,0.7,0.3c0.2,0.1,0.4,0.3,0.6,0.4c0.2,0.2,0.2,0.3,0.2,0.5
			c0,0.1-0.1,0.3-0.2,0.5s-0.2,0.4-0.3,0.7c-0.1,0.2-0.2,0.5-0.3,0.8c-0.1,0.3-0.2,0.5-0.3,0.8L306,421.3z M305.2,423.2
			c-0.1,0.3-0.2,0.5-0.3,0.8c-0.1,0.3-0.2,0.5-0.2,0.8v0.1c0,0,0,0,0,0.1c0,0.2,0.1,0.3,0.2,0.5c0.1,0.1,0.3,0.2,0.6,0.2
			c0.2,0,0.5,0,0.7-0.1s0.5-0.3,0.7-0.5s0.4-0.4,0.6-0.7c0.2-0.3,0.4-0.5,0.5-0.8s0.2-0.5,0.3-0.8c0.1-0.2,0.1-0.5,0-0.6
			c-0.1-0.2-0.2-0.3-0.5-0.3c-0.2,0-0.5,0-0.7,0.1c-0.3,0.1-0.5,0.2-0.8,0.3c-0.2,0.1-0.5,0.3-0.7,0.4
			C305.5,422.8,305.3,423,305.2,423.2z"/>
		<path class="st5" d="M313.8,421.2c-0.1,0.1-0.1,0.3-0.2,0.5s-0.2,0.5-0.3,0.8c-0.1,0.3-0.2,0.6-0.4,0.9c-0.1,0.3-0.2,0.6-0.3,0.9
			c-0.1,0.3-0.1,0.6-0.2,0.8c0,0.2,0,0.4,0,0.6v0.1h0.1c0.3-0.1,0.5-0.2,0.7-0.3c0.2-0.2,0.4-0.3,0.6-0.5s0.3-0.4,0.5-0.6
			c0.1-0.2,0.3-0.5,0.4-0.7l0,0c0-0.1,0.1-0.1,0.1-0.2s0.1-0.1,0.1-0.2c0,0,0.1-0.1,0.2,0c0.1,0,0.2,0.1,0.3,0.1
			c0.1,0,0.2,0.1,0.3,0.2c0.1,0.1,0.1,0.1,0.1,0.2l-0.3,0.5c-0.2,0.4-0.5,0.8-0.8,1.2c-0.3,0.4-0.6,0.8-1,1.1
			c-0.1,0.1-0.2,0.1-0.3,0.2c-0.1,0.1-0.2,0.1-0.4,0.2c-0.1,0.1-0.3,0.1-0.5,0.1s-0.4,0.1-0.6,0.1c-0.5,0-0.8-0.1-1.1-0.4
			c-0.3-0.2-0.4-0.6-0.5-0.9c0-0.1,0-0.2,0-0.2c0-0.1,0-0.2,0-0.2c0-0.7,0.1-1.4,0.3-2.1c0.2-0.7,0.5-1.3,0.8-2l0.4-0.9
			c0.1-0.3,0.2-0.5,0.3-0.8c0.1-0.3,0.2-0.5,0.3-0.8c0.1-0.3,0.2-0.5,0.2-0.8c0.1-0.3,0.1-0.5,0.1-0.7c0.1-0.1,0.3-0.1,0.6,0
			s0.5,0.2,0.7,0.3c0.2,0.1,0.4,0.3,0.6,0.4c0.2,0.2,0.2,0.3,0.2,0.5c0,0.1-0.1,0.3-0.2,0.5s-0.2,0.4-0.3,0.7
			c-0.1,0.2-0.2,0.5-0.3,0.8c-0.1,0.3-0.2,0.5-0.3,0.7L313.8,421.2z"/>
		<path class="st5" d="M320.3,422.6c-0.3,0.6-0.8,1.2-1.4,1.6s-1.4,0.7-2.2,0.9c0.1,0.2,0.2,0.4,0.3,0.5c0.1,0.2,0.3,0.3,0.6,0.3
			l0,0c0.2,0,0.4,0,0.7,0c0.3-0.1,0.5-0.2,0.8-0.3c0.3-0.1,0.5-0.3,0.8-0.6c0.3-0.2,0.5-0.5,0.7-0.8c0.1-0.2,0.2-0.3,0.3-0.5
			c0.1-0.2,0.2-0.4,0.3-0.5c0.1-0.1,0.2-0.1,0.3-0.1c0.1,0,0.3,0,0.4,0.1s0.2,0.1,0.3,0.2c0.1,0.1,0.1,0.2,0,0.3l-0.2,0.4
			c-0.2,0.3-0.4,0.7-0.7,1.1c-0.3,0.4-0.6,0.8-1,1.1c-0.3,0.2-0.5,0.4-0.8,0.5s-0.5,0.2-0.8,0.2c-0.3,0.1-0.5,0.1-0.7,0.1
			s-0.4,0-0.5,0c-0.8,0-1.4-0.2-1.9-0.5s-0.8-0.8-1-1.3c-0.1-0.5-0.1-0.9,0-1.4s0.4-1,0.8-1.5c0.1-0.2,0.3-0.4,0.6-0.6
			c0.2-0.2,0.5-0.4,0.8-0.6s0.7-0.3,1-0.4c0.4-0.1,0.8-0.2,1.2-0.1c0.4,0,0.8,0.1,1.1,0.3c0.3,0.2,0.5,0.4,0.6,0.8
			c0,0.1,0,0.3,0,0.4C320.5,422.3,320.4,422.5,320.3,422.6L320.3,422.6L320.3,422.6L320.3,422.6z M319.1,421.8
			c-0.3,0-0.6,0.2-0.9,0.3c-0.3,0.2-0.5,0.4-0.7,0.6s-0.4,0.5-0.5,0.8s-0.2,0.5-0.3,0.8c0.6-0.2,1.2-0.5,1.6-0.8
			c0.5-0.3,0.8-0.8,1-1.3l0,0c0-0.1,0-0.1,0.1-0.2c0-0.1,0-0.1,0-0.1C319.3,421.8,319.3,421.7,319.1,421.8z"/>
	</g>
	<g class="st1">
		<path class="st6" d="M63.9,305.1c14,24.1,17.6,26.7,17.6,26.7h-8.2c-0.2-3.6-3.4-8.1-3.4-8.1H57.6c-2.2,2.4-3.1,8.1-3.1,8.1h-8.2
			C51.5,326.6,63.9,305.1,63.9,305.1z M59.2,320.5h8.7l-4.3-8L59.2,320.5z"/>
		<path class="st6" d="M412.6,305c14,24.1,17.6,26.7,17.6,26.7H422c-0.2-3.6-3.4-8.1-3.4-8.1h-12.3c-2.2,2.4-3.1,8.1-3.1,8.1h-8.1
			C400.2,326.5,412.6,305,412.6,305z M408,320.4h8.7l-4.3-8L408,320.4z"/>
		<path class="st6" d="M111,310.8v-4.6c0,0-25.1-6-27.3,12.6c0,0-1.8,19.1,29.6,11.9c0,0-1.7-6.7,0.8-11.9h-7.7c0,0,1.2-0.3,1.3,9.1
			c0,0-17.3,6.2-18.4-9.1C89.3,318.8,89.5,302.7,111,310.8z"/>
		<path class="st6" d="M140.1,312.7c0.7,4.7-6.7,7.3-6.7,7.3c0.5,1.6,12.3,11.8,12.3,11.8h-6.3c-5.2-3.6-12.8-11.9-12.8-11.9
			c-0.7,7.9,1.3,11.9,1.3,11.9h-7.7c2.8-15.1,0-26.2,0-26.2C141.9,304.6,140.1,312.7,140.1,312.7z M126.9,308.2v10.6
			c0,0,7.7-0.1,8.3-5.5C135.1,313.3,135.5,308.1,126.9,308.2z"/>
		<path class="st6" d="M146.8,318.7c0,0-0.3-13.5,18.7-13.4c0,0,15.5,0.3,16.2,13.4c0,0-0.1,13.6-17.5,13.4
			C164.2,332.1,147.8,332.7,146.8,318.7z M152.6,318c1.2,11.5,12.4,11,12.4,11c12,0.2,11.5-10.3,11.5-10.3
			c-1.8-10.7-12.3-10.3-12.3-10.3C152.1,309,152.6,318,152.6,318z"/>
		<path class="st6" d="M194.4,305.7h-7.5c0,0,2.8,11.2,0,25.9h7.5C194.4,331.6,191.5,319.7,194.4,305.7z"/>
		<path class="st6" d="M198.6,305.7l4.2,3.4c0,0,0.9,19-1.3,22.5h7c0,0-1.6-6-1-17.8c0,0,14.7,14.9,16.4,17.8h7c0,0-3.1-12.6,0-25.9
			h-7.1c0,0,1.8,5,1.3,19.8l-18.4-19.8H198.6L198.6,305.7z"/>
		<path class="st6" d="M263.3,318.7c-0.8,16.8-26.1,12.9-26.1,12.9c2.6-16.2,0-25.9,0-25.9C265.5,304.5,263.3,318.7,263.3,318.7z
			 M243.8,308.5v20.4c0,0,14.1,0.8,14.4-10.3C258.2,318.7,258.4,308.5,243.8,308.5z"/>
		<path class="st6" d="M297.6,305.7c0,0-3,6,0,26.1h-5.9v-2.7c0,0-19.2,10.1-21.9-7.2c0,0-0.3-2.1,0-10.4c0,0-0.3-4.8-1.3-5.8h7.6
			c0,0-6.1,24.4,7,23.3c0,0,8.3,0.8,8.3-7.5c0,0,0.1-14-1.4-15.8H297.6L297.6,305.7z"/>
		<path class="st6" d="M303.7,326v5.1c0,0,16,4.5,18.2-6.2c0,0,0.9-3.5-4.8-6.6c0,0-12.3-5-5.9-9.1c0,0,4.4-2.6,9.4,1.8l-0.1-4.6
			c0,0-13.9-4.5-16.9,5.9c0,0-1,3.3,6.3,7.1c0,0,6.3,2.4,6.6,5.8c0,0,0.5,3.5-5.9,4C310.7,329.1,307.1,329.6,303.7,326z"/>
		<path class="st6" d="M327.1,305.7l25,0.1l-1.6,4.1c0,0-3-2.1-9.3-1.5c0,0-0.3,20.6,1.3,23.7H335c0,0,2.2-5.4,1.2-23.6
			c0,0-8.2,0-10.8,1.5L327.1,305.7z"/>
		<path class="st6" d="M362.4,308.3c0,0-0.1,5.7-0.1,11.6c0.1,5.6,0.3,11.4,1,12.1h-7.5c0,0,1.4-4.1,1.4-6l0.1-13.8
			c0,0-0.2-4.7-1.4-6.5c0,0,20.3-2.1,20.3,7.2c0,0,0.3,4.9-6.8,7c0,0,8.5,9.4,12.2,11.9h-6.2c0,0-9.3-6.9-12.8-11.7v-1.2
			c0,0,7.6-0.2,8.1-5.6C370.5,313.2,370.6,308.1,362.4,308.3z"/>
		<path class="st6" d="M383.8,305.5h7.5c0,0-0.9,3.5-1,6v14.1c0,0,0.1,4.3,1.2,6.5l-7.7-0.3c0,0,0.7-0.6,1.2-6v-14.6
			C385,311.2,385,307.4,383.8,305.5z"/>
		<path class="st6" d="M433.6,305.7h7.7c0,0-1.2,2.5-1.1,4.9L440,329c0,0,10.2-0.6,13.7-2.2l-2.6,4.9h-17.5c0,0,0.9-0.5,1.3-6.7
			l0.1-12.8C435,312.2,434.8,307.3,433.6,305.7z"/>
	</g>
</g>
<g>
	<path class="st7" d="M435.7,140.9c34.7,59.1-20.4,155.8-122.9,216.1s-213.9,61.2-248.5,2.2c-34.7-59.1,20.4-155.8,122.9-216.1
		S401,81.8,435.7,140.9z"/>
	<path class="st8" d="M62.2,329.8c4,2.7,11.3,5.5,18.1,5.5c10,0,14.7-5,14.7-11.3c0-6.5-3.9-10.1-14-13.9c-13.6-4.9-20-12.4-20-21.4
		c0-12.2,9.9-22.2,26.1-22.2c7.7,0,14.4,2.2,18.6,4.7l-3.3,10.1c-3-1.8-8.5-4.4-15.6-4.4c-8,0-12.6,4.7-12.6,10.3
		c0,6.2,4.5,9.1,14.3,12.8c13.1,5,19.8,11.6,19.8,22.8c0,13.3-10.2,22.8-28.3,22.8c-8.3,0-16-2.2-21.3-5.3L62.2,329.8z"/>
	<path class="st8" d="M188.4,343.9v-65.1h-10.6v-10.5h10.6v-3.7c0-10.6,2.4-20.3,8.7-26.4c5.1-5,12-7.1,18.4-7.1
		c4.9,0,9.1,1.1,11.7,2.2l-1.8,10.6c-2.1-0.9-4.9-1.7-8.7-1.7c-11.7,0-14.8,10.3-14.8,21.8v4h18.3v10.5H202v65.1h-13.6V343.9z"/>
	<path class="st8" d="M277.5,341.2c-3.7,1.8-11.6,4.5-21.7,4.5c-22.8,0-37.7-15.6-37.7-38.7c0-23.3,16-40.2,40.6-40.2
		c8.2,0,15.3,2.1,19.1,3.9l-3.1,10.6c-3.3-1.8-8.4-3.7-16-3.7c-17.2,0-26.7,12.8-26.7,28.6c0,17.5,11.2,28.3,26.2,28.3
		c7.8,0,12.9-2.1,16.8-3.8L277.5,341.2z"/>
	<path class="st8" d="M171.9,325.8v-28.3c0-15.1-5.6-30.9-28.7-30.9c-9.5,0-18.6,2.6-24.9,6.7l3.1,9.1c5.3-3.5,12.8-5.6,19.7-5.6
		c15.5,0,17.2,11.2,17.2,17.5v1.6c-29.2-0.2-45.4,9.8-45.4,28.2c0,10.9,7.8,21.7,23,21.7c10.7,0,19-5.3,23.2-11.3h0.5l1.2,9.5h12.5
		C172.2,338.8,171.9,332.4,171.9,325.8z M158.7,318.5c0,1.4-0.4,2.9-0.8,4.3c-2.2,6.4-8.3,12.8-18.3,12.8c-7.1,0-12.9-4.3-12.9-13.1
		c0-14.7,17.1-17.3,32.1-17.1L158.7,318.5L158.7,318.5z"/>
	<path class="st9" d="M126.6,322.4c0,8.9,6,13.1,12.9,13.1c9.9,0,16.1-6.3,18.3-12.8c0.5-1.4,0.8-2.9,0.8-4.3v-13.2
		C143.6,305,126.6,307.7,126.6,322.4z"/>
	<path class="st8" d="M317.7,266.6c-20.9,0-37.5,14.9-37.5,40.1c0,23.9,15.7,39,36.2,39c18.3,0,37.6-12.2,37.6-40.2
		C354,282.4,339.3,266.6,317.7,266.6z M317,335.4c-13.5,0-23-12.6-23-29.1c0-14.4,7.1-29.4,23.3-29.4c16.2,0,22.6,16.2,22.6,29.1
		C340,323,330,335.4,317,335.4z"/>
</g>
</svg>
