<?xml version="1.0" encoding="utf-8"?>
<!-- Generator: Adobe Illustrator 24.3.0, SVG Export Plug-In . SVG Version: 6.00 Build 0)  -->
<svg version="1.1" id="Capa_1" xmlns="http://www.w3.org/2000/svg" xmlns:xlink="http://www.w3.org/1999/xlink" x="0px" y="0px"
	 viewBox="0 0 272 254" style="enable-background:new 0 0 272 254;" xml:space="preserve">
<style type="text/css">
	.st0{display:none;}
	.st1{display:inline;fill:#87B53D;}
	.st2{display:none;fill:#274D73;}
	.st3{display:none;fill:#84A146;}
	.st4{display:none;fill:#185379;}
	.st5{fill:#23698E;}
	.st6{fill:#9BB952;}
</style>
<g class="st0">
	<path class="st1" d="M29,228.1H13.7l-2.8,7H0.4l16-36.2h10.1l16,36.2H31.8L29,228.1z M26,220.5l-4.6-11.6l-4.6,11.6H26z"/>
	<path class="st1" d="M74.7,207.1V230c0,5.2-1.4,9.1-4.2,11.7c-2.8,2.6-6.9,3.9-12.2,3.9c-2.8,0-5.3-0.3-7.7-0.9
		c-2.4-0.6-4.5-1.5-6.1-2.7L48,235c1.1,0.9,2.6,1.7,4.3,2.2c1.7,0.5,3.5,0.8,5.1,0.8c2.6,0,4.5-0.6,5.7-1.7c1.2-1.1,1.8-2.8,1.8-5.1
		v-0.9c-1.9,2.2-4.7,3.3-8.3,3.3c-2.5,0-4.8-0.6-6.9-1.7c-2.1-1.1-3.8-2.7-5-4.8c-1.2-2-1.9-4.4-1.9-7.1c0-2.7,0.6-5,1.9-7.1
		c1.2-2,2.9-3.6,5-4.8c2.1-1.1,4.4-1.7,6.9-1.7c4,0,6.9,1.3,8.8,3.9v-3.4L74.7,207.1L74.7,207.1z M63.3,224.2
		c1.2-1.1,1.7-2.4,1.7-4.1c0-1.7-0.6-3.1-1.7-4.1c-1.1-1.1-2.6-1.6-4.4-1.6s-3.3,0.5-4.4,1.6c-1.2,1.1-1.7,2.4-1.7,4.1
		c0,1.7,0.6,3.1,1.8,4.1c1.2,1.1,2.6,1.6,4.4,1.6S62.1,225.3,63.3,224.2z"/>
	<path class="st1" d="M94.3,207.6c1.6-0.6,3.4-1,5.5-1v8.8c-0.9-0.1-1.6-0.2-2.2-0.2c-2.1,0-3.7,0.6-4.9,1.7
		c-1.2,1.1-1.8,2.9-1.8,5.2v12.9H81v-28h9.3v3.4C91.4,209.2,92.7,208.2,94.3,207.6z"/>
	<path class="st1" d="M104.4,202.5c-1.1-1-1.7-2.2-1.7-3.7s0.6-2.7,1.7-3.7s2.5-1.5,4.3-1.5c1.8,0,3.2,0.5,4.3,1.4
		c1.1,0.9,1.7,2.2,1.7,3.6c0,1.6-0.6,2.8-1.7,3.8c-1.1,1-2.5,1.5-4.3,1.5C107,204,105.5,203.5,104.4,202.5z M103.9,207.1h9.8v28
		h-9.8C103.9,235.1,103.9,207.1,103.9,207.1z"/>
</g>
<g class="st0">
	<path class="st1" d="M136.9,233.5c-0.7,0.6-1.6,1.1-2.7,1.4s-2.2,0.5-3.3,0.5c-2.8,0-4.9-0.7-6.4-2.2c-1.5-1.5-2.3-3.6-2.3-6.4v-15
		h-4.6v-4.1h4.6v-6h5v6h7.9v4.1h-7.9v14.8c0,1.5,0.4,2.6,1.1,3.4c0.7,0.8,1.8,1.2,3.2,1.2c1.5,0,2.8-0.4,3.9-1.3L136.9,233.5z"/>
	<path class="st1" d="M151.5,208.7c1.7-0.8,3.7-1.2,6.1-1.2v4.8c-0.3,0-0.7-0.1-1.1-0.1c-2.7,0-4.8,0.8-6.3,2.4
		c-1.5,1.6-2.3,3.9-2.3,6.8v13.6h-5v-27.4h4.8v4.6C148.5,210.7,149.8,209.5,151.5,208.7z"/>
	<path class="st1" d="M182.4,210.2c2,1.9,3,4.6,3,8.3v16.5h-4.7v-3.6c-0.8,1.3-2,2.2-3.5,2.9s-3.3,1-5.4,1c-3.1,0-5.5-0.7-7.4-2.2
		c-1.8-1.5-2.8-3.4-2.8-5.8c0-2.4,0.9-4.3,2.6-5.8c1.8-1.5,4.5-2.2,8.4-2.2h7.9v-1c0-2.1-0.6-3.8-1.9-4.9c-1.2-1.1-3.1-1.7-5.5-1.7
		c-1.6,0-3.2,0.3-4.8,0.8c-1.5,0.5-2.9,1.2-3.9,2.1l-2.1-3.7c1.4-1.1,3.1-2,5.1-2.6c2-0.6,4-0.9,6.2-0.9
		C177.5,207.4,180.4,208.4,182.4,210.2z M177.4,230.3c1.4-0.8,2.4-2,3-3.6v-3.8h-7.6c-4.2,0-6.3,1.4-6.3,4.2c0,1.4,0.5,2.5,1.6,3.3
		c1.1,0.8,2.5,1.2,4.4,1.2S176.1,231.1,177.4,230.3z"/>
	<path class="st1" d="M199.2,233.6c-2.2-1.2-3.9-2.9-5.1-5c-1.2-2.1-1.9-4.5-1.9-7.2s0.6-5.1,1.9-7.2s3-3.8,5.1-5
		c2.2-1.2,4.7-1.8,7.5-1.8c2.5,0,4.7,0.5,6.6,1.5c1.9,1,3.5,2.4,4.5,4.3l-3.8,2.4c-0.9-1.3-1.9-2.3-3.2-2.9c-1.3-0.7-2.7-1-4.2-1
		c-1.8,0-3.4,0.4-4.8,1.2s-2.5,1.9-3.4,3.4c-0.8,1.5-1.2,3.1-1.2,5c0,1.9,0.4,3.6,1.2,5.1c0.8,1.5,1.9,2.6,3.4,3.4
		c1.4,0.8,3,1.2,4.8,1.2c1.6,0,3-0.3,4.2-1c1.3-0.7,2.3-1.6,3.2-2.9l3.8,2.4c-1.1,1.9-2.6,3.4-4.5,4.4c-1.9,1-4.2,1.5-6.6,1.5
		C203.8,235.4,201.4,234.8,199.2,233.6z"/>
	<path class="st1" d="M248.4,223h-22.2c0.3,2.4,1.4,4.3,3.2,5.8c1.8,1.5,4.1,2.2,6.7,2.2c3.3,0,5.9-1.1,7.9-3.3l2.7,3.2
		c-1.2,1.4-2.8,2.5-4.6,3.3s-3.9,1.1-6.2,1.1c-2.9,0-5.5-0.6-7.7-1.8c-2.2-1.2-4-2.8-5.2-5c-1.2-2.1-1.8-4.5-1.8-7.2
		c0-2.7,0.6-5,1.8-7.2s2.8-3.8,4.9-5c2.1-1.2,4.4-1.8,7.1-1.8c2.6,0,4.9,0.6,7,1.8c2,1.2,3.6,2.8,4.8,5c1.2,2.1,1.7,4.6,1.7,7.3
		C248.5,221.9,248.5,222.4,248.4,223z M229,213.8c-1.6,1.4-2.5,3.3-2.8,5.7h17.6c-0.3-2.3-1.2-4.2-2.8-5.7s-3.6-2.2-6-2.2
		C232.6,211.6,230.6,212.4,229,213.8z"/>
	<path class="st1" d="M264,208.7c1.7-0.8,3.7-1.2,6.1-1.2v4.8c-0.3,0-0.7-0.1-1.1-0.1c-2.7,0-4.8,0.8-6.3,2.4
		c-1.5,1.6-2.3,3.9-2.3,6.8v13.6h-5v-27.4h4.8v4.6C261,210.7,262.3,209.5,264,208.7z"/>
</g>
<path class="st2" d="M136.1,49.3c-35.1,0-63.6,28.5-63.6,63.6c0,35,28.2,63.3,63.1,63.6c0.2,0,0.3,0,0.5,0h46.6c9.4,0,17-7.6,17-17
	v-46.6v0C199.7,77.8,171.2,49.3,136.1,49.3 M120.1,115.1c0-8.9,7.2-16.1,16.1-16.1s16.1,7.2,16.1,16.1s-7.2,16.1-16.1,16.1
	S120.1,124,120.1,115.1"/>
<path class="st3" d="M136.2,38.7c0,0-3.3-30.7,32.2-29.6h14.4c0,0,0.7,29.6-31.8,29.6H136.2z"/>
<path class="st4" d="M182.8,253.9H2.7c-1.5,0-2.7-1.2-2.7-2.7c0-1.5,1.2-2.7,2.7-2.7h180.1c1.5,0,2.7,1.2,2.7,2.7
	C185.5,252.7,184.3,253.9,182.8,253.9"/>
<g>
	<g>
		<path id="circulo_4_" class="st5" d="M191.2,106.8C191.2,106.8,191.2,106.8,191.2,106.8v47.4c0,4.3-3.5,7.8-7.8,7.8H136
			c-0.1,0-0.3,0-0.4,0c-30.3-0.2-54.8-24.8-54.8-55.2c0-30.5,24.7-55.2,55.2-55.2C166.5,51.6,191.2,76.3,191.2,106.8z M150,106.8
			c0-7.7-6.2-13.9-13.9-13.9c-7.7,0-13.9,6.2-13.9,13.9s6.2,13.9,13.9,13.9C143.7,120.8,150,114.5,150,106.8"/>
		<path id="pricipal_2_" class="st6" d="M135.9,37.4c0,0-2.9-26.7,27.9-25.7h12.5c0,0,0.6,25.7-27.6,25.7H135.9z"/>
	</g>
	<g>
		<path class="st6" d="M31.7,231.8l-2.6-6.7H13.5l-2.6,6.7H1.1l15.5-37.1h9.3l15.5,37.1H31.7z M21.3,205.1l-4.7,12.2h9.5L21.3,205.1
			z"/>
		<path class="st6" d="M64,228.3v-0.8c-2.1,1.8-4.8,2.7-8.4,2.7c-4,0-7.2-1.8-9.4-3.9c-2.2-2.2-4-5.5-4-9.7c0-6.3,3.8-10.5,8.3-12.4
			c1.6-0.7,3.3-1,5.1-1c3.5,0,6.3,0.9,8.4,2.7v-1.8h8.7v25c0,6.9-4,10.7-9.3,12.4c-1.9,0.6-4,0.9-6.2,0.9c-6.6,0-11.4-2.5-13.9-6.7
			l7.4-4c1.1,1.3,2.1,2.1,3,2.7c0.9,0.5,2.1,0.8,3.5,0.8C61.2,235.1,64,232.5,64,228.3z M57.5,223c3.7,0,6.5-2.8,6.5-6.4
			c0-3.6-2.9-6.3-6.5-6.3c-3.8,0-6.6,2.6-6.6,6.3C50.9,220.3,53.7,223,57.5,223z"/>
		<path class="st6" d="M96.5,203.7c0.7,0,1.4,0.1,2,0.2l-0.4,8.9h-1.6c-6.4,0-9.6,3.5-9.6,10.4v8.7h-8.9v-27.8h8.9v5.3
			C88.8,206.3,91.8,203.7,96.5,203.7z"/>
		<rect x="102.7" y="204.1" class="st6" width="8.9" height="27.8"/>
		<path class="st6" d="M136.1,230.9c-2.1,1.3-2.8,1.6-4.9,1.6c-2.8,0-5-0.8-6.6-2.4c-1.6-1.6-2.4-3.9-2.4-6.8v-15.2h-5.9v-3.5h5.9
			v-8.7h4.3v8.7h9.7v3.5h-9.7V223c0,1.7,0.5,3.1,1.4,4.1c0.9,1,2.1,1.5,3.7,1.5c0.7,0,1.5-0.2,2.4-0.5c0.9-0.3,1.6-0.7,2.3-1.2
			V230.9z"/>
		<path class="st6" d="M157.9,204.5l-0.3,4l-1.6-0.1c-1.3,0-2.6,0.2-3.9,0.6c-1.3,0.4-2.5,1.2-3.5,2.2c-1,1-1.9,2.4-2.5,4
			c-0.7,1.7-1,3.7-1,6v10.5h-4.3v-27.3h4.3v6.7c1.2-2.1,2.7-3.8,4.6-5.1c1.9-1.3,4-1.9,6.4-1.9C156.7,204.3,157.4,204.4,157.9,204.5
			z"/>
		<path class="st6" d="M181.5,206.6c2,1.8,3.1,4.3,3.1,7.6v17.7h-4.1v-4.1c-1.1,1.5-2.5,2.7-4.3,3.5c-1.8,0.9-3.7,1.3-5.9,1.3
			c-2.9,0-5.3-0.8-7.2-2.3c-1.8-1.5-2.7-3.6-2.7-6c0-2.5,1-4.6,2.9-6.2c1.9-1.6,4.6-2.4,8.1-2.4h9.2v-1.3c0-1.1-0.2-2.1-0.7-3.2
			c-0.4-1.1-1.2-1.9-2.3-2.6c-1.1-0.7-2.4-1-4-1c-2.1,0-3.8,0.5-5.1,1.5c-1.4,1-2.2,1.4-2.5,3.1h-4c0.4-2.5,1.7-4.5,3.8-6
			c2.1-1.5,4.7-2.3,7.6-2.3C176.7,203.9,179.4,204.8,181.5,206.6z M175,228.2c1.5-0.6,2.8-1.5,3.8-3c1.1-1.4,1.6-3,1.6-4.8V219h-9.2
			c-2.1,0-3.8,0.5-5,1.4c-1.2,1-1.8,2.2-1.8,3.7c0,0.7,0.2,1.4,0.6,2.2c0.4,0.8,1.1,1.4,2.2,2c1.1,0.5,2.3,0.8,3.7,0.8
			C172.1,229.1,173.5,228.8,175,228.2z"/>
		<path class="st6" d="M207.2,228c1.2-0.4,2.2-1.1,3.2-2c1-0.9,1.5-1.5,2-3l4-0.1c-0.7,2.7-2.3,5.5-4.7,7.1
			c-2.4,1.6-5.1,2.5-8.2,2.5c-1.9,0-3.7-0.3-5.4-1c-1.7-0.7-3.3-1.7-4.6-2.9c-1.3-1.3-2.4-2.8-3.1-4.6c-0.7-1.8-1.1-3.7-1.1-5.8
			c0-1.5,0.2-3,0.6-4.4c0.4-1.4,1.1-2.8,2-4.1c0.9-1.3,2.1-2.5,3.7-3.5c1.5-1,3-1.6,4.4-1.9c1.4-0.3,2.6-0.4,3.5-0.4
			c1.5,0,3.1,0.3,4.8,0.8c1.7,0.5,3.4,1.5,4.9,3c1.5,1.5,2.6,3.9,3.2,5.9h-4.2c-0.6-2-1.5-3-3.2-4.1c-1.6-1.1-3.5-1.7-5.6-1.7
			c-1.7,0-3.4,0.4-5,1.3c-1.6,0.9-2.9,2.1-3.8,3.8c-0.9,1.7-1.3,3.5-1.3,5.3c0,1.1,0.2,2.3,0.5,3.5c0.4,1.2,0.9,2.3,1.8,3.3
			c0.8,1,1.9,1.9,3.2,2.5c1.3,0.7,2.9,1,4.6,1C204.8,228.6,206,228.4,207.2,228z"/>
		<path class="st6" d="M248.7,219.1h-23.4c0.1,1.1,0.3,2.2,0.7,3.4c0.4,1.1,1,2.2,1.9,3.1c0.8,0.9,1.9,1.7,3.1,2.4
			c1.2,0.6,2.6,0.9,4.1,0.9c2.1,0,3.9-0.5,5.5-1.4c1.6-0.9,2.6-1.5,3.5-3.6h4c-1.1,2.8-2.7,5-5,6.4c-2.3,1.5-5,2.2-8,2.2
			c-1.8,0-3.5-0.3-5.2-1c-1.7-0.7-3.2-1.7-4.5-2.9c-1.3-1.3-2.3-2.8-3.1-4.6c-0.7-1.8-1.1-3.7-1.1-5.8c0-1.5,0.2-3.2,0.7-4.8
			c0.5-1.7,1.4-3.3,2.8-4.9c1.3-1.6,3-2.8,4.9-3.5c1.9-0.8,3.8-1.2,5.7-1.2c1.8,0,3.5,0.3,5.1,1c1.6,0.6,3,1.6,4.2,2.8
			c1.2,1.2,2.2,2.7,2.9,4.4c0.7,1.7,1.1,3.5,1.2,5.5V219.1z M231.6,208.3c-1.4,0.5-2.7,1.4-3.9,2.7c-1.2,1.3-1.9,2.9-2.2,4.9h19
			c-0.2-1.6-0.8-3.1-1.6-4.4c-0.9-1.3-2-2.3-3.3-2.9c-1.4-0.6-2.7-0.9-4.1-0.9C234.3,207.6,233.1,207.8,231.6,208.3z"/>
		<path class="st6" d="M270.9,204.5l-0.3,4l-1.6-0.1c-1.3,0-2.6,0.2-3.9,0.6c-1.3,0.4-2.5,1.2-3.5,2.2c-1,1-1.9,2.4-2.5,4
			c-0.7,1.7-1,3.7-1,6v10.5h-4.3v-27.3h4.3v6.7c1.2-2.1,2.7-3.8,4.6-5.1c1.9-1.3,4-1.9,6.4-1.9C269.7,204.3,270.4,204.4,270.9,204.5
			z"/>
		<path id="texto_2_" class="st6" d="M102.7,201.1c0,0-0.7-5.9,7.1-5.7h3.2c0,0,0.2,5.7-7,5.7H102.7z"/>
	</g>
</g>
</svg>
