<?xml version="1.0" encoding="utf-8"?>
<!-- Generator: Adobe Illustrator 27.6.1, SVG Export Plug-In . SVG Version: 6.00 Build 0)  -->
<svg version="1.1" id="Capa_1" xmlns="http://www.w3.org/2000/svg" xmlns:xlink="http://www.w3.org/1999/xlink" x="0px" y="0px"
	 viewBox="0 0 235.66 300" style="enable-background:new 0 0 235.66 300;" xml:space="preserve">
<style type="text/css">
	.st0{fill:#88C69F;}
	.st1{fill:#FFFFFF;}
	.st2{fill:#EFDB63;}
</style>
<g>
	<g>
		<path class="st0" d="M225.44,183.88c0,0.01,0,0.01,0,0.01v77.7c0,15.64-12.97,28.32-28.97,28.32H117c-0.27,0-0.53,0-0.8-0.01
			C56.68,289.49,8.56,242.18,8.56,183.88C8.56,125.32,57.11,77.84,117,77.84C176.88,77.84,225.44,125.32,225.44,183.88z"/>
		<g>
			<g>
				<path class="st1" d="M116.02,169.76l-0.91-2.36h-5.45l-0.91,2.36h-3.42l5.41-12.98h3.26l5.41,12.98H116.02z M112.39,160.38
					l-1.64,4.26h3.3L112.39,160.38z"/>
				<path class="st1" d="M127.29,168.54v-0.27c-0.72,0.62-1.69,0.93-2.92,0.93c-1.4,0-2.52-0.61-3.28-1.37
					c-0.78-0.77-1.39-1.94-1.39-3.4c0-2.19,1.32-3.69,2.9-4.34c0.57-0.23,1.16-0.35,1.78-0.35c1.22,0,2.19,0.31,2.92,0.93v-0.64
					h3.03v8.76c0,2.41-1.4,3.77-3.26,4.34c-0.67,0.21-1.39,0.31-2.16,0.31c-2.3,0-3.98-0.88-4.87-2.34l2.57-1.4
					c0.37,0.44,0.72,0.75,1.05,0.93c0.33,0.18,0.74,0.27,1.23,0.27C126.31,170.9,127.29,169.98,127.29,168.54z M125.04,166.66
					c1.28,0,2.26-0.98,2.26-2.23c0-1.26-1.01-2.21-2.26-2.21c-1.33,0-2.32,0.92-2.32,2.21
					C122.72,165.72,123.69,166.66,125.04,166.66z"/>
				<path class="st1" d="M138.63,159.89c0.26,0,0.49,0.03,0.7,0.08l-0.14,3.1h-0.56c-2.23,0-3.34,1.21-3.34,3.64v3.04h-3.09v-9.73
					h3.09v1.86C135.95,160.82,136.99,159.89,138.63,159.89z"/>
				<rect x="140.79" y="160.03" class="st1" width="3.09" height="9.73"/>
				<path class="st1" d="M152.47,169.45c-0.72,0.47-0.97,0.56-1.72,0.56c-0.97,0-1.73-0.28-2.3-0.84c-0.57-0.56-0.85-1.36-0.85-2.39
					v-5.33h-2.07v-1.24h2.07v-3.04h1.49v3.04h3.38v1.24h-3.38v5.23c0,0.61,0.16,1.08,0.48,1.42c0.32,0.34,0.75,0.51,1.27,0.51
					c0.24,0,0.52-0.05,0.82-0.16c0.3-0.11,0.57-0.25,0.8-0.42V169.45z"/>
				<path class="st1" d="M160.06,160.18l-0.12,1.41l-0.56-0.02c-0.45,0-0.9,0.07-1.36,0.22c-0.46,0.15-0.87,0.4-1.23,0.77
					c-0.36,0.36-0.66,0.83-0.89,1.41c-0.23,0.58-0.35,1.28-0.35,2.09v3.68h-1.49v-9.55h1.49v2.34c0.41-0.75,0.94-1.34,1.59-1.78
					c0.65-0.44,1.39-0.66,2.23-0.66C159.66,160.11,159.88,160.13,160.06,160.18z"/>
				<path class="st1" d="M168.3,160.91c0.71,0.63,1.07,1.51,1.07,2.65v6.2h-1.43v-1.45c-0.39,0.52-0.88,0.93-1.5,1.24
					c-0.61,0.31-1.3,0.47-2.08,0.47c-1.03,0-1.86-0.27-2.5-0.81c-0.64-0.54-0.96-1.25-0.96-2.11c0-0.89,0.33-1.61,1-2.16
					c0.67-0.55,1.61-0.82,2.82-0.82h3.21v-0.45c0-0.37-0.08-0.75-0.23-1.11c-0.15-0.37-0.42-0.67-0.81-0.91
					c-0.39-0.24-0.85-0.36-1.39-0.36c-0.72,0-1.32,0.17-1.8,0.51c-0.48,0.34-0.77,0.5-0.87,1.1h-1.41c0.15-0.87,0.6-1.57,1.34-2.1
					c0.74-0.54,1.63-0.8,2.66-0.8C166.63,159.97,167.59,160.28,168.3,160.91z M166.03,168.5c0.51-0.19,0.96-0.54,1.34-1.04
					c0.38-0.5,0.57-1.06,0.57-1.7v-0.5h-3.22c-0.75,0-1.33,0.17-1.76,0.5c-0.42,0.34-0.64,0.77-0.64,1.3c0,0.23,0.07,0.48,0.2,0.76
					c0.14,0.27,0.39,0.5,0.76,0.69c0.37,0.19,0.8,0.28,1.29,0.28C165.03,168.79,165.52,168.69,166.03,168.5z"/>
				<path class="st1" d="M177.28,168.42c0.41-0.14,0.78-0.37,1.12-0.69c0.34-0.32,0.54-0.54,0.7-1.06l1.41-0.02
					c-0.26,0.96-0.8,1.92-1.64,2.49c-0.84,0.58-1.79,0.86-2.86,0.86c-0.66,0-1.29-0.12-1.89-0.36c-0.6-0.24-1.14-0.58-1.6-1.03
					c-0.46-0.45-0.82-0.98-1.08-1.6c-0.26-0.62-0.39-1.3-0.39-2.03c0-0.54,0.07-1.06,0.22-1.55c0.15-0.49,0.38-0.97,0.7-1.44
					c0.32-0.47,0.75-0.88,1.28-1.22c0.53-0.34,1.05-0.56,1.54-0.66c0.5-0.1,0.9-0.15,1.21-0.15c0.51,0,1.07,0.09,1.68,0.28
					c0.61,0.19,1.18,0.54,1.72,1.06c0.54,0.52,0.91,1.36,1.12,2.07h-1.47c-0.21-0.7-0.54-1.05-1.11-1.45
					c-0.57-0.4-1.22-0.6-1.94-0.6c-0.61,0-1.19,0.15-1.76,0.46c-0.57,0.3-1,0.75-1.31,1.34c-0.31,0.59-0.46,1.21-0.46,1.87
					c0,0.4,0.06,0.81,0.18,1.23c0.12,0.42,0.33,0.81,0.62,1.16c0.29,0.36,0.67,0.65,1.13,0.89c0.46,0.24,1,0.36,1.6,0.36
					C176.45,168.63,176.87,168.56,177.28,168.42z"/>
				<path class="st1" d="M191.77,165.28h-8.17c0.03,0.39,0.11,0.78,0.25,1.18c0.14,0.4,0.36,0.77,0.65,1.1
					c0.29,0.33,0.65,0.6,1.08,0.82c0.43,0.22,0.9,0.33,1.42,0.33c0.72,0,1.36-0.16,1.92-0.49c0.56-0.33,0.9-0.54,1.23-1.25h1.41
					c-0.37,0.98-0.96,1.73-1.75,2.26c-0.79,0.52-1.73,0.78-2.81,0.78c-0.62,0-1.22-0.12-1.81-0.36c-0.59-0.24-1.11-0.58-1.56-1.02
					c-0.46-0.44-0.81-0.97-1.07-1.6c-0.26-0.63-0.39-1.3-0.39-2.03c0-0.54,0.09-1.1,0.26-1.69c0.17-0.58,0.5-1.15,0.97-1.71
					c0.47-0.56,1.04-0.97,1.72-1.24c0.68-0.27,1.34-0.41,1.98-0.41c0.63,0,1.23,0.11,1.79,0.34c0.56,0.23,1.05,0.55,1.48,0.98
					c0.42,0.43,0.76,0.94,1,1.53c0.24,0.59,0.38,1.23,0.41,1.92V165.28z M185.8,161.52c-0.5,0.17-0.96,0.48-1.37,0.95
					c-0.41,0.46-0.67,1.03-0.77,1.71h6.62c-0.08-0.57-0.27-1.09-0.57-1.55c-0.3-0.47-0.69-0.81-1.17-1.03s-0.96-0.33-1.45-0.33
					C186.74,161.27,186.31,161.35,185.8,161.52z"/>
				<path class="st1" d="M199.52,160.18l-0.12,1.41l-0.56-0.02c-0.45,0-0.9,0.07-1.36,0.22c-0.46,0.15-0.87,0.4-1.23,0.77
					c-0.36,0.36-0.66,0.83-0.89,1.41c-0.23,0.58-0.35,1.28-0.35,2.09v3.68h-1.49v-9.55h1.49v2.34c0.41-0.75,0.94-1.34,1.59-1.78
					c0.65-0.44,1.39-0.66,2.23-0.66C199.11,160.11,199.33,160.13,199.52,160.18z"/>
				<path id="texto_00000140733500823805845200000000702059311671030409_" class="st1" d="M140.8,158.99c0,0-0.26-2.08,2.49-2h1.12
					c0,0,0.06,2-2.46,2H140.8z"/>
			</g>
			<g>
				<g>
					<path class="st1" d="M123.06,218.21c0.36,2,1.64,3,3.84,3c2.46,0,5.66-1.47,9.6-4.4c2.3-1.7,3.84-2.55,4.63-2.55
						c0.98,0,1.9,0.27,2.76,0.8c0.85,0.53,1.28,1.09,1.28,1.65c0,0.6-0.48,1.38-1.43,2.35c-1.74,1.77-3.74,3.49-6,5.18
						c-2.26,1.69-4.45,3.09-6.55,4.2c-2.1,1.12-4.2,2-6.3,2.65c-2.1,0.65-3.97,0.98-5.61,0.98c-4.1,0-7.38-1.19-9.84-3.58
						c-2.46-2.38-3.69-5.56-3.69-9.53c0-3.04,0.65-6.46,1.94-10.28c1.3-3.82,3.04-7.4,5.24-10.74c2.59-3.9,5.78-7.16,9.55-9.76
						c4.66-3.14,9.12-4.7,13.39-4.7c3.08,0,5.5,0.99,7.26,2.98c1.76,1.99,2.63,4.71,2.63,8.18c0,2.7-0.7,5.52-2.09,8.46
						c-1.39,2.94-3.45,5.76-6.18,8.46c-2.23,2.27-4.42,4.04-6.57,5.31c-2.15,1.27-4.03,1.9-5.64,1.9
						C124.55,218.76,123.81,218.57,123.06,218.21z M122.96,216.6c1.51-1.03,2.66-2.07,3.44-3.1c1.74-2.17,3.08-4.65,4.04-7.46
						c0.75-1.84,1.35-3.89,1.77-6.16c0.43-2.27,0.64-4.39,0.64-6.36c0-1.83-0.38-2.75-1.13-2.75c-1.05,0-2.66,2.35-4.82,7.06
						c-1.28,2.84-2.32,5.66-3.12,8.48c-0.8,2.82-1.21,5.25-1.21,7.28C122.57,214.3,122.7,215.3,122.96,216.6z"/>
					<path class="st1" d="M181.82,181.82c4.89,0,7.33,0.58,7.33,1.75c0,1.34-1.1,2.05-3.3,2.15c-2.66,0.17-5.14,0.93-7.43,2.3
						c-2.3,1.37-4.34,3.24-6.13,5.61c-1.79,2.37-3.18,5.04-4.18,8.01c-1,2.97-1.5,6.11-1.5,9.41c0,3.64,0.84,6.57,2.51,8.78
						c1.67,2.22,3.86,3.33,6.55,3.33c2.49,0,4.68-1.3,6.55-3.9c1.87-2.6,2.81-5.64,2.81-9.11c0-2.84-0.58-5.5-1.75-7.98
						c-1.17-2.49-2.86-4.58-5.09-6.28c-0.95-0.77-1.43-1.32-1.43-1.65c0-0.47,0.67-1.18,2.02-2.15c1.51-1.03,3.2-1.9,5.07-2.6
						c1.87-0.7,3.45-1.05,4.73-1.05c1.48,0,2.88,0.39,4.21,1.18c1.33,0.78,2.5,1.9,3.52,3.35c1.02,1.45,1.8,3.12,2.34,5
						c0.54,1.89,0.81,3.9,0.81,6.03c0,3.54-0.66,7.03-1.97,10.48c-1.31,3.45-3.04,6.25-5.17,8.38c-2.76,2.7-6.08,4.91-9.97,6.63
						c-3.89,1.72-7.59,2.58-11.1,2.58c-3.41,0-6.8-0.6-10.16-1.8s-6.03-2.78-8-4.75c-2.63-2.67-3.94-6.46-3.94-11.36
						c0-3.87,0.94-7.74,2.81-11.61c1.87-3.87,4.41-7.38,7.6-10.54c3.2-3.15,6.73-5.64,10.58-7.46
						C173.99,182.73,177.88,181.82,181.82,181.82z"/>
				</g>
				<g>
					<path class="st1" d="M69.75,186.27l3.29-6.53c3.33-6.28,5.97-10.97,7.92-14.04c1.95-3.08,3.7-5.3,5.24-6.67
						c1.55-1.37,3.12-2.05,4.73-2.05c2.59,0,4.41,1.18,5.46,3.54c1.06,2.36,1.59,6.45,1.59,12.29c0,2.42-0.15,5.99-0.44,10.7
						c-0.44,6.27-0.66,12.16-0.66,17.68c0,6.21,0.18,11.23,0.55,15.08c0.25,2.36,0.64,4.72,1.15,7.07c0.36,2.23,0.55,3.76,0.55,4.56
						c0,0.99-0.22,1.77-0.66,2.33c-1.13,1.68-2.62,3.13-4.48,4.38c-1.86,1.24-3.43,1.86-4.7,1.86c-2.08,0-3.96-1.21-5.66-3.63
						c-1.69-2.42-3.01-5.77-3.94-10.05c-0.93-4.28-1.39-9.12-1.39-14.52c0-3.6,0.22-7.85,0.66-12.75l-0.22-0.37
						c-1.57,2.98-2.84,5.34-3.8,7.07c-0.97,1.74-1.87,3.38-2.71,4.93c-4.08,7.94-7.55,15.11-10.39,21.5
						c-1.09,2.48-2.1,4.65-3.01,6.52c-1.35,2.3-2.88,3.44-4.59,3.44c-2.33,0-4.23-1.49-5.69-4.47c-1.46-2.98-2.19-6.83-2.19-11.54
						c0-2.92,0.2-6.48,0.6-10.7c0.4-4.22,0.94-8.73,1.61-13.54c0.67-4.81,1.48-9.76,2.41-14.84c0.93-5.09,1.94-9.93,3.03-14.52
						c1.68-7.63,3.72-13.59,6.13-17.87c1.64-2.79,3.63-4.19,5.96-4.19c3.79,0,5.69,4.19,5.69,12.56c0,6.14-0.76,14.95-2.26,26.41
						L69.75,186.27z"/>
				</g>
			</g>
		</g>
		<path class="st2" d="M126.34,59.5c0,0-5.68-51.22,54.9-49.37h24.61c0,0,1.26,49.37-54.27,49.37H126.34z"/>
	</g>
</g>
</svg>
