<?xml version="1.0" standalone="no"?>
<svg xmlns:xlink="http://www.w3.org/1999/xlink" id="wave" style="transform:rotate(0deg); transition: 0.3s" viewBox="0 0 1440 220" version="1.1" xmlns="http://www.w3.org/2000/svg"><defs><linearGradient id="sw-gradient-0" x1="0" x2="0" y1="1" y2="0"><stop stop-color="rgba(16, 94, 186, 1)" offset="0%"/><stop stop-color="rgba(89, 227, 255, 1)" offset="100%"/></linearGradient></defs><path style="transform:translate(0, 0px); opacity:1" fill="url(#sw-gradient-0)" d="M0,88L120,73.3C240,59,480,29,720,22C960,15,1200,29,1440,33C1680,37,1920,29,2160,36.7C2400,44,2640,66,2880,62.3C3120,59,3360,29,3600,36.7C3840,44,4080,88,4320,117.3C4560,147,4800,161,5040,161.3C5280,161,5520,147,5760,132C6000,117,6240,103,6480,91.7C6720,81,6960,73,7200,73.3C7440,73,7680,81,7920,102.7C8160,125,8400,161,8640,150.3C8880,139,9120,81,9360,66C9600,51,9840,81,10080,80.7C10320,81,10560,51,10800,55C11040,59,11280,95,11520,102.7C11760,110,12000,88,12240,84.3C12480,81,12720,95,12960,102.7C13200,110,13440,110,13680,110C13920,110,14160,110,14400,106.3C14640,103,14880,95,15120,88C15360,81,15600,73,15840,80.7C16080,88,16320,110,16560,106.3C16800,103,17040,73,17160,58.7L17280,44L17280,220L17160,220C17040,220,16800,220,16560,220C16320,220,16080,220,15840,220C15600,220,15360,220,15120,220C14880,220,14640,220,14400,220C14160,220,13920,220,13680,220C13440,220,13200,220,12960,220C12720,220,12480,220,12240,220C12000,220,11760,220,11520,220C11280,220,11040,220,10800,220C10560,220,10320,220,10080,220C9840,220,9600,220,9360,220C9120,220,8880,220,8640,220C8400,220,8160,220,7920,220C7680,220,7440,220,7200,220C6960,220,6720,220,6480,220C6240,220,6000,220,5760,220C5520,220,5280,220,5040,220C4800,220,4560,220,4320,220C4080,220,3840,220,3600,220C3360,220,3120,220,2880,220C2640,220,2400,220,2160,220C1920,220,1680,220,1440,220C1200,220,960,220,720,220C480,220,240,220,120,220L0,220Z"/></svg>